<svg width="32" height="32" viewBox="0 0 32 32" fill="none" xmlns="http://www.w3.org/2000/svg">
<g id="Horizontal Slider 2">
<g id="horizontal-slider-2--adjustment-adjust-controls-fader-horizontal-settings-slider" filter="url(#filter0_d_188_19848)">
<path id="Vector" d="M7.42836 5.99979C8.84853 5.99979 9.99979 4.84853 9.99979 3.42836C9.99979 2.0082 8.84853 0.856934 7.42836 0.856934C6.0082 0.856934 4.85693 2.0082 4.85693 3.42836C4.85693 4.84853 6.0082 5.99979 7.42836 5.99979Z" stroke="#4D45A9" stroke-width="1.6" stroke-linecap="round" stroke-linejoin="round"/>
<path id="Vector_2" d="M10 3.42822H27.1429" stroke="#4D45A9" stroke-width="1.6" stroke-linecap="round" stroke-linejoin="round"/>
<path id="Vector_3" d="M15.9997 14.5711C17.4198 14.5711 18.5711 13.4198 18.5711 11.9997C18.5711 10.5795 17.4198 9.42822 15.9997 9.42822C14.5795 9.42822 13.4282 10.5795 13.4282 11.9997C13.4282 13.4198 14.5795 14.5711 15.9997 14.5711Z" stroke="#4D45A9" stroke-width="1.6" stroke-linecap="round" stroke-linejoin="round"/>
<path id="Vector_4" d="M4.85693 12H13.4284" stroke="#4D45A9" stroke-width="1.6" stroke-linecap="round" stroke-linejoin="round"/>
<path id="Vector_5" d="M18.5713 12H27.1427" stroke="#4D45A9" stroke-width="1.6" stroke-linecap="round" stroke-linejoin="round"/>
<path id="Vector_6" d="M24.5714 23.1429C25.9915 23.1429 27.1429 21.9915 27.1429 20.5714C27.1429 19.1513 25.9915 18 24.5714 18C23.1513 18 22 19.1513 22 20.5714C22 21.9915 23.1513 23.1429 24.5714 23.1429Z" stroke="#4D45A9" stroke-width="1.6" stroke-linecap="round" stroke-linejoin="round"/>
<path id="Vector_7" d="M21.9998 20.5713H4.85693" stroke="#4D45A9" stroke-width="1.6" stroke-linecap="round" stroke-linejoin="round"/>
</g>
</g>
<defs>
<filter id="filter0_d_188_19848" x="0.0571289" y="0.0571289" width="31.8857" height="31.8857" filterUnits="userSpaceOnUse" color-interpolation-filters="sRGB">
<feFlood flood-opacity="0" result="BackgroundImageFix"/>
<feColorMatrix in="SourceAlpha" type="matrix" values="0 0 0 0 0 0 0 0 0 0 0 0 0 0 0 0 0 0 127 0" result="hardAlpha"/>
<feOffset dy="4"/>
<feGaussianBlur stdDeviation="2"/>
<feComposite in2="hardAlpha" operator="out"/>
<feColorMatrix type="matrix" values="0 0 0 0 0 0 0 0 0 0 0 0 0 0 0 0 0 0 0.25 0"/>
<feBlend mode="normal" in2="BackgroundImageFix" result="effect1_dropShadow_188_19848"/>
<feBlend mode="normal" in="SourceGraphic" in2="effect1_dropShadow_188_19848" result="shape"/>
</filter>
</defs>
</svg>
