<svg width="24" height="24" viewBox="0 0 24 24" fill="none" xmlns="http://www.w3.org/2000/svg">
<g id="Horizontal Slider 2">
<g id="horizontal-slider-2--adjustment-adjust-controls-fader-horizontal-settings-slider">
<path id="Vector" d="M3.42836 6.00028C4.84853 6.00028 5.99979 4.84902 5.99979 3.42885C5.99979 2.00868 4.84853 0.857422 3.42836 0.857422C2.0082 0.857422 0.856934 2.00868 0.856934 3.42885C0.856934 4.84902 2.0082 6.00028 3.42836 6.00028Z" stroke="#636363" stroke-width="1.6" stroke-linecap="round" stroke-linejoin="round"/>
<path id="Vector_2" d="M6 3.42883H23.1429" stroke="#636363" stroke-width="1.6" stroke-linecap="round" stroke-linejoin="round"/>
<path id="Vector_3" d="M11.9997 14.5717C13.4198 14.5717 14.5711 13.4204 14.5711 12.0003C14.5711 10.5801 13.4198 9.42883 11.9997 9.42883C10.5795 9.42883 9.42822 10.5801 9.42822 12.0003C9.42822 13.4204 10.5795 14.5717 11.9997 14.5717Z" stroke="#636363" stroke-width="1.6" stroke-linecap="round" stroke-linejoin="round"/>
<path id="Vector_4" d="M0.856934 12H9.42836" stroke="#636363" stroke-width="1.6" stroke-linecap="round" stroke-linejoin="round"/>
<path id="Vector_5" d="M14.5713 12H23.1427" stroke="#636363" stroke-width="1.6" stroke-linecap="round" stroke-linejoin="round"/>
<path id="Vector_6" d="M20.5714 23.1429C21.9915 23.1429 23.1429 21.9915 23.1429 20.5714C23.1429 19.1513 21.9915 18 20.5714 18C19.1513 18 18 19.1513 18 20.5714C18 21.9915 19.1513 23.1429 20.5714 23.1429Z" stroke="#636363" stroke-width="1.6" stroke-linecap="round" stroke-linejoin="round"/>
<path id="Vector_7" d="M17.9998 20.5713H0.856934" stroke="#636363" stroke-width="1.6" stroke-linecap="round" stroke-linejoin="round"/>
</g>
</g>
</svg>
