<svg width="24" height="24" viewBox="0 0 24 24" fill="none" xmlns="http://www.w3.org/2000/svg">
<g id="Money Cash Dollar Coin" clip-path="url(#clip0_188_19781)">
<g id="Group">
<path id="Vector" d="M12 7.71425V5.14282" stroke="#636363" stroke-width="1.6" stroke-linecap="round" stroke-linejoin="round"/>
<g id="Group_2">
<path id="Vector_2" d="M9.42822 14.5715C9.42822 15.8572 10.5768 16.2858 11.9997 16.2858C13.4225 16.2858 14.5711 16.2858 14.5711 14.5715C14.5711 12.0001 9.42822 12.0001 9.42822 9.42864C9.42822 7.71436 10.5768 7.71436 11.9997 7.71436C13.4225 7.71436 14.5711 8.36578 14.5711 9.42864" stroke="#636363" stroke-width="1.6" stroke-linecap="round" stroke-linejoin="round"/>
<path id="Vector_3" d="M11.9995 16.2859V18.8573" stroke="#636363" stroke-width="1.6" stroke-linecap="round" stroke-linejoin="round"/>
</g>
<path id="Vector_4" d="M11.9998 23.1429C18.1538 23.1429 23.1426 18.1541 23.1426 12C23.1426 5.846 18.1538 0.857178 11.9998 0.857178C5.84576 0.857178 0.856934 5.846 0.856934 12C0.856934 18.1541 5.84576 23.1429 11.9998 23.1429Z" stroke="#636363" stroke-width="1.6" stroke-linecap="round" stroke-linejoin="round"/>
</g>
</g>
<defs>
<clipPath id="clip0_188_19781">
<rect width="24" height="24" fill="white"/>
</clipPath>
</defs>
</svg>
