<svg width="24" height="24" viewBox="0 0 24 24" fill="none" xmlns="http://www.w3.org/2000/svg">
<g id="Mail Chat Bubble Typing Square" clip-path="url(#clip0_188_19775)">
<g id="Group">
<path id="Vector" d="M7.28537 11.9999C7.75875 11.9999 8.14251 11.6162 8.14251 11.1428C8.14251 10.6694 7.75875 10.2856 7.28537 10.2856C6.81198 10.2856 6.42822 10.6694 6.42822 11.1428C6.42822 11.6162 6.81198 11.9999 7.28537 11.9999Z" stroke="#636363" stroke-width="1.6" stroke-linecap="round" stroke-linejoin="round"/>
<path id="Vector_2" d="M12.8571 11.9999C13.3305 11.9999 13.7143 11.6162 13.7143 11.1428C13.7143 10.6694 13.3305 10.2856 12.8571 10.2856C12.3838 10.2856 12 10.6694 12 11.1428C12 11.6162 12.3838 11.9999 12.8571 11.9999Z" stroke="#636363" stroke-width="1.6" stroke-linecap="round" stroke-linejoin="round"/>
<path id="Vector_3" d="M18.4284 11.9999C18.9018 11.9999 19.2856 11.6162 19.2856 11.1428C19.2856 10.6694 18.9018 10.2856 18.4284 10.2856C17.955 10.2856 17.5713 10.6694 17.5713 11.1428C17.5713 11.6162 17.955 11.9999 18.4284 11.9999Z" stroke="#636363" stroke-width="1.6" stroke-linecap="round" stroke-linejoin="round"/>
<path id="Vector_4" d="M7.71408 21.4284L0.856934 23.1426L2.57122 17.9998V2.57122C2.57122 2.11656 2.75183 1.68053 3.07332 1.35904C3.39481 1.03755 3.83085 0.856934 4.28551 0.856934H21.4284C21.883 0.856934 22.3191 1.03755 22.6405 1.35904C22.962 1.68053 23.1426 2.11656 23.1426 2.57122V19.7141C23.1426 20.1687 22.962 20.6048 22.6405 20.9263C22.3191 21.2478 21.883 21.4284 21.4284 21.4284H7.71408Z" stroke="#636363" stroke-width="1.6" stroke-linecap="round" stroke-linejoin="round"/>
</g>
</g>
<defs>
<clipPath id="clip0_188_19775">
<rect width="24" height="24" fill="white"/>
</clipPath>
</defs>
</svg>
