<svg width="34" height="26" viewBox="0 0 34 26" fill="none" xmlns="http://www.w3.org/2000/svg">
<path d="M8.2 3V23C8.2 24.4833 9.89338 25.33 11.08 24.44L24.4133 14.44C25.3733 13.72 25.3733 12.28 24.4133 11.56L11.08 1.56C9.89338 0.670032 8.2 1.51672 8.2 3Z" fill="white" stroke="#3AB700" stroke-width="1.6"/>
<rect x="6" y="12" width="20" height="2" fill="white"/>
<path d="M4.818 11.592C5.25 11.592 5.584 11.722 5.82 11.982C6.06 12.242 6.18 12.594 6.18 13.038V15H4.854V13.206C4.854 13.062 4.81 12.95 4.722 12.87C4.638 12.786 4.524 12.744 4.38 12.744C4.232 12.744 4.116 12.786 4.032 12.87C3.948 12.95 3.906 13.062 3.906 13.206V15H2.58V13.206C2.58 13.062 2.536 12.95 2.448 12.87C2.364 12.786 2.25 12.744 2.106 12.744C1.958 12.744 1.842 12.786 1.758 12.87C1.674 12.95 1.632 13.062 1.632 13.206V15H0.3V11.616H1.632V12.072C1.728 11.928 1.858 11.812 2.022 11.724C2.19 11.636 2.386 11.592 2.61 11.592C2.854 11.592 3.07 11.646 3.258 11.754C3.446 11.858 3.596 12.006 3.708 12.198C3.832 12.022 3.99 11.878 4.182 11.766C4.374 11.65 4.586 11.592 4.818 11.592ZM8.36503 15.042C8.02503 15.042 7.71903 14.972 7.44703 14.832C7.17503 14.692 6.96103 14.492 6.80503 14.232C6.65303 13.968 6.57703 13.66 6.57703 13.308C6.57703 12.956 6.65303 12.65 6.80503 12.39C6.96103 12.126 7.17503 11.924 7.44703 11.784C7.71903 11.644 8.02503 11.574 8.36503 11.574C8.70503 11.574 9.01103 11.644 9.28303 11.784C9.55503 11.924 9.76703 12.126 9.91903 12.39C10.075 12.65 10.153 12.956 10.153 13.308C10.153 13.66 10.075 13.968 9.91903 14.232C9.76703 14.492 9.55503 14.692 9.28303 14.832C9.01103 14.972 8.70503 15.042 8.36503 15.042ZM8.36503 13.89C8.48903 13.89 8.59303 13.842 8.67703 13.746C8.76103 13.646 8.80303 13.5 8.80303 13.308C8.80303 13.116 8.76103 12.972 8.67703 12.876C8.59303 12.776 8.48903 12.726 8.36503 12.726C8.24103 12.726 8.13703 12.776 8.05303 12.876C7.96903 12.972 7.92703 13.116 7.92703 13.308C7.92703 13.5 7.96703 13.646 8.04703 13.746C8.13103 13.842 8.23703 13.89 8.36503 13.89ZM12.2335 15.042C11.7255 15.042 11.3055 14.924 10.9735 14.688C10.6455 14.448 10.4675 14.098 10.4395 13.638H11.8555C11.8755 13.882 11.9835 14.004 12.1795 14.004C12.2515 14.004 12.3115 13.988 12.3595 13.956C12.4115 13.92 12.4375 13.866 12.4375 13.794C12.4375 13.694 12.3835 13.614 12.2755 13.554C12.1675 13.49 11.9995 13.418 11.7715 13.338C11.4995 13.242 11.2735 13.148 11.0935 13.056C10.9175 12.964 10.7655 12.83 10.6375 12.654C10.5095 12.478 10.4475 12.252 10.4515 11.976C10.4515 11.7 10.5215 11.466 10.6615 11.274C10.8055 11.078 10.9995 10.93 11.2435 10.83C11.4915 10.73 11.7695 10.68 12.0775 10.68C12.5975 10.68 13.0095 10.8 13.3135 11.04C13.6215 11.28 13.7835 11.618 13.7995 12.054H12.3655C12.3615 11.934 12.3315 11.848 12.2755 11.796C12.2195 11.744 12.1515 11.718 12.0715 11.718C12.0155 11.718 11.9695 11.738 11.9335 11.778C11.8975 11.814 11.8795 11.866 11.8795 11.934C11.8795 12.03 11.9315 12.11 12.0355 12.174C12.1435 12.234 12.3135 12.308 12.5455 12.396C12.8135 12.496 13.0335 12.592 13.2055 12.684C13.3815 12.776 13.5335 12.904 13.6615 13.068C13.7895 13.232 13.8535 13.438 13.8535 13.686C13.8535 13.946 13.7895 14.18 13.6615 14.388C13.5335 14.592 13.3475 14.752 13.1035 14.868C12.8595 14.984 12.5695 15.042 12.2335 15.042ZM14.1415 13.308C14.1415 12.956 14.2135 12.65 14.3575 12.39C14.5055 12.126 14.7095 11.924 14.9695 11.784C15.2335 11.644 15.5335 11.574 15.8695 11.574C16.3095 11.574 16.6795 11.698 16.9795 11.946C17.2835 12.194 17.4755 12.538 17.5555 12.978H16.1455C16.0935 12.802 15.9915 12.714 15.8395 12.714C15.7315 12.714 15.6455 12.764 15.5815 12.864C15.5215 12.964 15.4915 13.112 15.4915 13.308C15.4915 13.504 15.5215 13.652 15.5815 13.752C15.6455 13.852 15.7315 13.902 15.8395 13.902C15.9915 13.902 16.0935 13.814 16.1455 13.638H17.5555C17.4755 14.078 17.2835 14.422 16.9795 14.67C16.6795 14.918 16.3095 15.042 15.8695 15.042C15.5335 15.042 15.2335 14.972 14.9695 14.832C14.7095 14.692 14.5055 14.492 14.3575 14.232C14.2135 13.968 14.1415 13.66 14.1415 13.308ZM19.3097 12.24C19.4457 12.044 19.6117 11.888 19.8077 11.772C20.0037 11.652 20.2077 11.592 20.4197 11.592V13.014H20.0417C19.7897 13.014 19.6037 13.058 19.4837 13.146C19.3677 13.234 19.3097 13.39 19.3097 13.614V15H17.9777V11.616H19.3097V12.24ZM21.4505 11.346C21.2185 11.346 21.0325 11.284 20.8925 11.16C20.7525 11.036 20.6825 10.88 20.6825 10.692C20.6825 10.5 20.7525 10.342 20.8925 10.218C21.0325 10.09 21.2185 10.026 21.4505 10.026C21.6785 10.026 21.8625 10.09 22.0025 10.218C22.1425 10.342 22.2125 10.5 22.2125 10.692C22.2125 10.88 22.1425 11.036 22.0025 11.16C21.8625 11.284 21.6785 11.346 21.4505 11.346ZM22.1105 11.616V15H20.7785V11.616H22.1105ZM24.0441 12.078C24.1281 11.922 24.2481 11.8 24.4041 11.712C24.5641 11.62 24.7541 11.574 24.9741 11.574C25.2381 11.574 25.4761 11.644 25.6881 11.784C25.9001 11.92 26.0661 12.12 26.1861 12.384C26.3101 12.644 26.3721 12.952 26.3721 13.308C26.3721 13.664 26.3101 13.974 26.1861 14.238C26.0661 14.498 25.9001 14.698 25.6881 14.838C25.4761 14.974 25.2381 15.042 24.9741 15.042C24.7541 15.042 24.5641 14.998 24.4041 14.91C24.2481 14.818 24.1281 14.694 24.0441 14.538V15H22.7121V10.56H24.0441V12.078ZM25.0221 13.308C25.0221 13.128 24.9761 12.988 24.8841 12.888C24.7921 12.788 24.6741 12.738 24.5301 12.738C24.3861 12.738 24.2681 12.788 24.1761 12.888C24.0841 12.988 24.0381 13.128 24.0381 13.308C24.0381 13.488 24.0841 13.628 24.1761 13.728C24.2681 13.828 24.3861 13.878 24.5301 13.878C24.6741 13.878 24.7921 13.828 24.8841 13.728C24.9761 13.628 25.0221 13.488 25.0221 13.308ZM30.0662 13.278C30.0662 13.37 30.0602 13.458 30.0482 13.542H27.9062C27.9262 13.834 28.0482 13.98 28.2722 13.98C28.4162 13.98 28.5202 13.914 28.5842 13.782H29.9942C29.9462 14.022 29.8442 14.238 29.6882 14.43C29.5362 14.618 29.3422 14.768 29.1062 14.88C28.8742 14.988 28.6182 15.042 28.3382 15.042C28.0022 15.042 27.7022 14.972 27.4382 14.832C27.1782 14.692 26.9742 14.492 26.8262 14.232C26.6822 13.968 26.6102 13.66 26.6102 13.308C26.6102 12.956 26.6822 12.65 26.8262 12.39C26.9742 12.126 27.1782 11.924 27.4382 11.784C27.7022 11.644 28.0022 11.574 28.3382 11.574C28.6742 11.574 28.9722 11.644 29.2322 11.784C29.4962 11.92 29.7002 12.116 29.8442 12.372C29.9922 12.628 30.0662 12.93 30.0662 13.278ZM28.7162 12.96C28.7162 12.848 28.6802 12.764 28.6082 12.708C28.5362 12.648 28.4462 12.618 28.3382 12.618C28.1022 12.618 27.9642 12.732 27.9242 12.96H28.7162ZM30.2955 10.4512H31.4691V10.9084H31.1595V11.7112H30.6051V10.9084H30.2955V10.4512ZM33.4887 10.4512V11.7112H32.9811L32.9703 11.11L32.7255 11.7112H32.3547L32.1135 11.0632V11.7112H31.6311V10.4512H32.3907L32.5707 11.0128L32.7975 10.4512H33.4887Z" fill="#3AB700"/>
<path d="M5.82 11.982L5.07952 12.6541L5.0852 12.6603L5.82 11.982ZM6.18 15V16H7.18V15H6.18ZM4.854 15H3.854V16H4.854V15ZM4.722 12.87L4.01489 13.5771L4.03172 13.5939L4.04933 13.6099L4.722 12.87ZM4.032 12.87L4.72166 13.5941L4.73049 13.5857L4.73911 13.5771L4.032 12.87ZM3.906 15V16H4.906V15H3.906ZM2.58 15H1.58V16H2.58V15ZM2.448 12.87L1.74089 13.5771L1.75772 13.5939L1.77533 13.6099L2.448 12.87ZM1.758 12.87L2.44766 13.5941L2.45649 13.5857L2.46511 13.5771L1.758 12.87ZM1.632 15V16H2.632V15H1.632ZM0.3 15H-0.7V16H0.3V15ZM0.3 11.616V10.616H-0.7V11.616H0.3ZM1.632 11.616H2.632V10.616H1.632V11.616ZM1.632 12.072H0.632V15.3748L2.46405 12.6267L1.632 12.072ZM2.022 11.724L1.55797 10.8381L1.54918 10.8428L2.022 11.724ZM3.258 11.754L2.75988 12.6211L2.76688 12.6251L2.77394 12.629L3.258 11.754ZM3.708 12.198L2.84422 12.7019L3.62874 14.0468L4.52548 12.774L3.708 12.198ZM4.182 11.766L4.68587 12.6298L4.69252 12.6259L4.69912 12.6219L4.182 11.766ZM4.818 12.592C5.03803 12.592 5.07554 12.6497 5.07954 12.6541L6.56046 11.3099C6.09246 10.7943 5.46197 10.592 4.818 10.592V12.592ZM5.0852 12.6603C5.11424 12.6917 5.18 12.7786 5.18 13.038H7.18C7.18 12.4094 7.00576 11.7923 6.5548 11.3037L5.0852 12.6603ZM5.18 13.038V15H7.18V13.038H5.18ZM6.18 14H4.854V16H6.18V14ZM5.854 15V13.206H3.854V15H5.854ZM5.854 13.206C5.854 12.8446 5.73445 12.4389 5.39467 12.1301L4.04933 13.6099C3.97832 13.5454 3.92371 13.4648 3.89025 13.3797C3.85845 13.2987 3.854 13.2351 3.854 13.206H5.854ZM5.42911 12.1629C5.119 11.8528 4.72918 11.744 4.38 11.744V13.744C4.35538 13.744 4.29989 13.7404 4.2278 13.7138C4.15219 13.686 4.07758 13.6398 4.01489 13.5771L5.42911 12.1629ZM4.38 11.744C4.03573 11.744 3.64013 11.8477 3.32489 12.1629L4.73911 13.5771C4.67343 13.6428 4.59682 13.6888 4.52244 13.7158C4.45194 13.7413 4.39955 13.744 4.38 13.744V11.744ZM3.34235 12.1459C3.01434 12.4582 2.906 12.8588 2.906 13.206H4.906C4.906 13.2301 4.90254 13.2886 4.87383 13.3651C4.84352 13.4459 4.79244 13.5267 4.72166 13.5941L3.34235 12.1459ZM2.906 13.206V15H4.906V13.206H2.906ZM3.906 14H2.58V16H3.906V14ZM3.58 15V13.206H1.58V15H3.58ZM3.58 13.206C3.58 12.8446 3.46045 12.4389 3.12067 12.1301L1.77533 13.6099C1.70432 13.5454 1.64971 13.4648 1.61625 13.3797C1.58445 13.2987 1.58 13.2351 1.58 13.206H3.58ZM3.15511 12.1629C2.845 11.8528 2.45518 11.744 2.106 11.744V13.744C2.08138 13.744 2.02589 13.7404 1.95379 13.7138C1.87819 13.686 1.80358 13.6398 1.74089 13.5771L3.15511 12.1629ZM2.106 11.744C1.76173 11.744 1.36613 11.8477 1.05089 12.1629L2.46511 13.5771C2.39943 13.6428 2.32282 13.6888 2.24844 13.7158C2.17794 13.7413 2.12555 13.744 2.106 13.744V11.744ZM1.06834 12.1459C0.740341 12.4582 0.632 12.8588 0.632 13.206H2.632C2.632 13.2301 2.62854 13.2886 2.59983 13.3651C2.56952 13.4459 2.51845 13.5267 2.44766 13.5941L1.06834 12.1459ZM0.632 13.206V15H2.632V13.206H0.632ZM1.632 14H0.3V16H1.632V14ZM1.3 15V11.616H-0.7V15H1.3ZM0.3 12.616H1.632V10.616H0.3V12.616ZM0.632 11.616V12.072H2.632V11.616H0.632ZM2.46405 12.6267C2.46466 12.6258 2.46518 12.625 2.46729 12.6231C2.46965 12.621 2.47753 12.6144 2.49482 12.6052L1.54918 10.8428C1.25165 11.0025 0.993869 11.2264 0.79995 11.5173L2.46405 12.6267ZM2.48601 12.6098C2.48702 12.6093 2.51841 12.592 2.61 12.592V10.592C2.25359 10.592 1.89298 10.6627 1.55799 10.8382L2.48601 12.6098ZM2.61 12.592C2.70156 12.592 2.74172 12.6107 2.75988 12.6211L3.75612 10.8869C3.39828 10.6813 3.00644 10.592 2.61 10.592V12.592ZM2.77394 12.629C2.79862 12.6427 2.81974 12.6599 2.84422 12.7019L4.57178 11.6941C4.37226 11.3521 4.09339 11.0733 3.74206 10.879L2.77394 12.629ZM4.52548 12.774C4.5641 12.7191 4.61372 12.6719 4.68587 12.6298L3.67813 10.9022C3.36628 11.0841 3.0999 11.3249 2.89052 11.622L4.52548 12.774ZM4.69912 12.6219C4.72959 12.6035 4.76174 12.592 4.818 12.592V10.592C4.41026 10.592 4.01841 10.6965 3.66489 10.9101L4.69912 12.6219ZM7.44703 14.832L7.90467 13.9429L7.44703 14.832ZM6.80503 14.232L5.93841 14.731L5.9429 14.7388L5.94754 14.7465L6.80503 14.232ZM6.80503 12.39L5.9441 11.8813L5.94173 11.8853L6.80503 12.39ZM7.44703 11.784L7.90467 12.6731H7.90468L7.44703 11.784ZM9.28303 11.784L8.82539 12.6731L9.28303 11.784ZM9.91903 12.39L9.05241 12.889L9.0569 12.8968L9.06154 12.9045L9.91903 12.39ZM9.91903 14.232L9.0581 13.7233L9.05573 13.7273L9.91903 14.232ZM9.28303 14.832L8.82539 13.9429V13.9429L9.28303 14.832ZM8.67703 13.746L9.42961 14.4045L9.43625 14.3969L9.44274 14.3892L8.67703 13.746ZM8.67703 12.876L7.91133 13.5192L7.91781 13.5269L7.92446 13.5345L8.67703 12.876ZM8.05303 12.876L8.80561 13.5345L8.81225 13.5269L8.81874 13.5192L8.05303 12.876ZM8.04703 13.746L7.26616 14.3707L7.27994 14.3879L7.29445 14.4045L8.04703 13.746ZM8.36503 14.042C8.16623 14.042 8.01995 14.0022 7.90467 13.9429L6.98939 15.7211C7.41812 15.9418 7.88383 16.042 8.36503 16.042V14.042ZM7.90467 13.9429C7.79668 13.8873 7.72182 13.8163 7.66252 13.7175L5.94754 14.7465C6.20024 15.1677 6.55339 15.4967 6.98939 15.7211L7.90467 13.9429ZM7.67165 13.733C7.61984 13.643 7.57703 13.5124 7.57703 13.308H5.57703C5.57703 13.8076 5.68623 14.293 5.93841 14.731L7.67165 13.733ZM7.57703 13.308C7.57703 13.1031 7.61997 12.9774 7.66833 12.8947L5.94173 11.8853C5.68609 12.3226 5.57703 12.8089 5.57703 13.308H7.57703ZM7.66596 12.8987C7.72631 12.7966 7.80069 12.7267 7.90467 12.6731L6.98939 10.8949C6.54937 11.1213 6.19575 11.4554 5.9441 11.8813L7.66596 12.8987ZM7.90468 12.6731C8.01995 12.6138 8.16623 12.574 8.36503 12.574V10.574C7.88383 10.574 7.41812 10.6742 6.98939 10.8949L7.90468 12.6731ZM8.36503 12.574C8.56383 12.574 8.71012 12.6138 8.82539 12.6731L9.74067 10.8949C9.31195 10.6742 8.84623 10.574 8.36503 10.574V12.574ZM8.82539 12.6731C8.92714 12.7255 8.99681 12.7924 9.05241 12.889L10.7857 11.891C10.5373 11.4596 10.1829 11.1225 9.74067 10.8949L8.82539 12.6731ZM9.06154 12.9045C9.11016 12.9855 9.15303 13.1077 9.15303 13.308H11.153C11.153 12.8043 11.0399 12.3145 10.7765 11.8755L9.06154 12.9045ZM9.15303 13.308C9.15303 13.5079 9.11028 13.635 9.05811 13.7233L10.78 14.7407C11.0398 14.301 11.153 13.8121 11.153 13.308H9.15303ZM9.05573 13.7273C9.00126 13.8205 8.9312 13.8884 8.82539 13.9429L9.74067 15.7211C10.1789 15.4956 10.5328 15.1635 10.7823 14.7367L9.05573 13.7273ZM8.82539 13.9429C8.71012 14.0022 8.56383 14.042 8.36503 14.042V16.042C8.84623 16.042 9.31195 15.9418 9.74067 15.7211L8.82539 13.9429ZM8.36503 14.89C8.78673 14.89 9.16196 14.7104 9.42961 14.4045L7.92445 13.0875C7.96433 13.0419 8.02773 12.9872 8.11697 12.946C8.20693 12.9045 8.29445 12.89 8.36503 12.89V14.89ZM9.44274 14.3892C9.7352 14.041 9.80303 13.6278 9.80303 13.308H7.80303C7.80303 13.3339 7.79989 13.3219 7.81051 13.285C7.82195 13.2453 7.84974 13.1761 7.91133 13.1028L9.44274 14.3892ZM9.80303 13.308C9.80303 12.9922 9.73684 12.5686 9.42961 12.2175L7.92446 13.5345C7.85517 13.4553 7.82419 13.3794 7.81153 13.336C7.79979 13.2957 7.80303 13.2817 7.80303 13.308H9.80303ZM9.44274 12.2328C9.18031 11.9204 8.80197 11.726 8.36503 11.726V13.726C8.28842 13.726 8.19585 13.7095 8.10274 13.6648C8.01104 13.6207 7.94854 13.5635 7.91133 13.5192L9.44274 12.2328ZM8.36503 11.726C7.92809 11.726 7.54976 11.9204 7.28733 12.2328L8.81874 13.5192C8.78152 13.5635 8.71902 13.6207 8.62733 13.6648C8.53421 13.7095 8.44164 13.726 8.36503 13.726V11.726ZM7.30045 12.2175C6.99322 12.5686 6.92703 12.9922 6.92703 13.308H8.92703C8.92703 13.2817 8.93027 13.2957 8.91853 13.336C8.90587 13.3794 8.87489 13.4553 8.80561 13.5345L7.30045 12.2175ZM6.92703 13.308C6.92703 13.6184 6.98877 14.0239 7.26616 14.3707L8.8279 13.1213C8.88706 13.1953 8.91195 13.2624 8.92149 13.2973C8.9304 13.3298 8.92703 13.3374 8.92703 13.308H6.92703ZM7.29445 14.4045C7.56909 14.7184 7.94981 14.89 8.36503 14.89V12.89C8.42895 12.89 8.51297 12.9027 8.60204 12.943C8.6912 12.9834 8.75672 13.0385 8.79961 13.0875L7.29445 14.4045ZM10.9735 14.688L10.3829 15.4951L10.3941 15.5031L10.9735 14.688ZM10.4395 13.638V12.638H9.37676L9.44133 13.6988L10.4395 13.638ZM11.8555 13.638L12.8521 13.5563L12.7769 12.638H11.8555V13.638ZM12.3595 13.956L12.9142 14.7881L12.9215 14.7832L12.9287 14.7782L12.3595 13.956ZM12.2755 13.554L11.7657 14.4143L11.7777 14.4214L11.7898 14.4282L12.2755 13.554ZM11.7715 13.338L11.4387 14.281L11.4404 14.2816L11.7715 13.338ZM11.0935 13.056L10.6302 13.9423L10.6384 13.9464L11.0935 13.056ZM10.6375 12.654L11.4462 12.0658V12.0658L10.6375 12.654ZM10.4515 11.976L11.4514 11.9905L11.4515 11.9832V11.976H10.4515ZM10.6615 11.274L9.8556 10.6819L9.85348 10.6848L10.6615 11.274ZM11.2435 10.83L10.8695 9.90254L10.8643 9.90469L11.2435 10.83ZM13.3135 11.04L12.6938 11.8249L12.6988 11.8288L13.3135 11.04ZM13.7995 12.054V13.054H14.8369L14.7988 12.0173L13.7995 12.054ZM12.3655 12.054L11.366 12.0873L11.3983 13.054H12.3655V12.054ZM11.9335 11.778L12.6406 12.4851L12.6592 12.4665L12.6768 12.447L11.9335 11.778ZM12.0355 12.174L11.5114 13.0257L11.5304 13.0373L11.5498 13.0482L12.0355 12.174ZM12.5455 12.396L12.1908 13.331L12.1959 13.3329L12.5455 12.396ZM13.2055 12.684L12.7338 13.5658L12.7422 13.5702L13.2055 12.684ZM13.6615 13.068L12.8732 13.6833H12.8732L13.6615 13.068ZM13.6615 14.388L14.5086 14.9195L14.5131 14.9121L13.6615 14.388ZM13.1035 14.868L12.6741 13.9649L13.1035 14.868ZM12.2335 14.042C11.8813 14.042 11.6778 13.9618 11.5529 13.8729L10.3941 15.5031C10.9332 15.8862 11.5696 16.042 12.2335 16.042V14.042ZM11.564 13.881C11.5101 13.8415 11.4503 13.7849 11.4376 13.5772L9.44133 13.6988C9.48469 14.4111 9.7809 15.0545 10.383 15.495L11.564 13.881ZM10.4395 14.638H11.8555V12.638H10.4395V14.638ZM10.8588 13.7197C10.8781 13.9543 10.9495 14.2893 11.2027 14.5753C11.4848 14.894 11.8585 15.004 12.1795 15.004V13.004C12.3044 13.004 12.5261 13.053 12.7002 13.2497C12.774 13.3329 12.812 13.414 12.8309 13.468C12.8492 13.5203 12.8519 13.5537 12.8521 13.5563L10.8588 13.7197ZM12.1795 15.004C12.3998 15.004 12.6653 14.9539 12.9142 14.7881L11.8048 13.124C11.9576 13.0221 12.1031 13.004 12.1795 13.004V15.004ZM12.9287 14.7782C13.2911 14.5273 13.4375 14.1415 13.4375 13.794H11.4375C11.4375 13.7096 11.453 13.5876 11.517 13.4547C11.5833 13.317 11.6821 13.2087 11.7903 13.1338L12.9287 14.7782ZM13.4375 13.794C13.4375 13.2402 13.0985 12.8673 12.7611 12.6798L11.7898 14.4282C11.7437 14.4025 11.6503 14.3403 11.5681 14.2185C11.4794 14.087 11.4375 13.9358 11.4375 13.794H13.4375ZM12.7853 12.6937C12.5902 12.5781 12.3469 12.4801 12.1026 12.3944L11.4404 14.2816C11.5395 14.3164 11.6166 14.3463 11.6746 14.3711C11.7033 14.3834 11.7252 14.3936 11.7412 14.4015C11.7491 14.4054 11.7551 14.4085 11.7594 14.4108C11.7614 14.4119 11.763 14.4128 11.7641 14.4134C11.7652 14.414 11.7657 14.4143 11.7657 14.4143L12.7853 12.6937ZM12.1043 12.395C11.8581 12.3081 11.6763 12.2308 11.5486 12.1656L10.6384 13.9464C10.8707 14.0652 11.1409 14.1759 11.4387 14.281L12.1043 12.395ZM11.5567 12.1698C11.53 12.1558 11.4924 12.1293 11.4462 12.0658L9.82875 13.2422C10.0386 13.5307 10.3049 13.7722 10.6302 13.9422L11.5567 12.1698ZM11.4462 12.0658C11.4585 12.0827 11.4609 12.0936 11.4594 12.0879C11.4572 12.0803 11.4505 12.0505 11.4514 11.9905L9.45159 11.9615C9.4453 12.3952 9.54289 12.8491 9.82875 13.2422L11.4462 12.0658ZM11.4515 11.976C11.4515 11.9227 11.4582 11.8929 11.462 11.8801C11.4655 11.8687 11.4682 11.865 11.4695 11.8632L9.85348 10.6848C9.56935 11.0745 9.45148 11.5236 9.45148 11.976H11.4515ZM11.4674 11.8661C11.4934 11.8307 11.534 11.7917 11.6227 11.7553L10.8643 9.90469C10.465 10.0683 10.1176 10.3253 9.8556 10.6819L11.4674 11.8661ZM11.6175 11.7574C11.73 11.7121 11.8784 11.68 12.0775 11.68V9.68C11.6606 9.68 11.253 9.74793 10.8695 9.90256L11.6175 11.7574ZM12.0775 11.68C12.4494 11.68 12.6184 11.7653 12.6938 11.8249L13.9331 10.2551C13.4006 9.83468 12.7456 9.68 12.0775 9.68V11.68ZM12.6988 11.8288C12.7447 11.8645 12.7936 11.9109 12.8002 12.0907L14.7988 12.0173C14.7734 11.3251 14.4983 10.6955 13.9281 10.2512L12.6988 11.8288ZM13.7995 11.054H12.3655V13.054H13.7995V11.054ZM13.3649 12.0207C13.357 11.782 13.2939 11.377 12.9559 11.0632L11.595 12.5288C11.4826 12.4244 11.4242 12.3104 11.3958 12.2289C11.3689 12.1517 11.3664 12.0981 11.366 12.0873L13.3649 12.0207ZM12.9559 11.0632C12.7056 10.8308 12.3909 10.718 12.0715 10.718V12.718C12.0015 12.718 11.9161 12.7063 11.8253 12.6716C11.7338 12.6365 11.6562 12.5856 11.595 12.5288L12.9559 11.0632ZM12.0715 10.718C11.7451 10.718 11.4244 10.8488 11.1902 11.109L12.6768 12.447C12.6061 12.5255 12.5114 12.5989 12.3937 12.6501C12.277 12.7008 12.1647 12.718 12.0715 12.718V10.718ZM11.2264 11.0709C10.9466 11.3507 10.8795 11.6927 10.8795 11.934H12.8795C12.8795 12.0393 12.8484 12.2773 12.6406 12.4851L11.2264 11.0709ZM10.8795 11.934C10.8795 12.4731 11.2037 12.8363 11.5114 13.0257L12.5596 11.3223C12.5997 11.347 12.6829 11.4071 12.7569 11.521C12.8371 11.6443 12.8795 11.7898 12.8795 11.934H10.8795ZM11.5498 13.0482C11.7236 13.1447 11.9492 13.2393 12.1908 13.331L12.9001 11.461C12.6778 11.3767 12.5634 11.3233 12.5211 11.2998L11.5498 13.0482ZM12.1959 13.3329C12.4394 13.4238 12.6148 13.5021 12.7338 13.5658L13.6771 11.8022C13.4522 11.6819 13.1876 11.5682 12.8951 11.4591L12.1959 13.3329ZM12.7422 13.5702C12.7858 13.593 12.8287 13.6263 12.8732 13.6833L14.4498 12.4527C14.2383 12.1817 13.9772 11.959 13.6687 11.7978L12.7422 13.5702ZM12.8732 13.6833C12.8673 13.6758 12.8621 13.6676 12.8579 13.6595C12.8537 13.6514 12.8515 13.6452 12.8505 13.6422C12.8486 13.636 12.8535 13.6479 12.8535 13.686H14.8535C14.8535 13.2594 14.74 12.8245 14.4498 12.4527L12.8732 13.6833ZM12.8535 13.686C12.8535 13.7734 12.8345 13.8238 12.8098 13.8639L14.5131 14.9121C14.7445 14.5362 14.8535 14.1186 14.8535 13.686H12.8535ZM12.8144 13.8565C12.7995 13.8803 12.768 13.9203 12.6741 13.9649L13.5328 15.7711C13.927 15.5837 14.2675 15.3037 14.5085 14.9195L12.8144 13.8565ZM12.6741 13.9649C12.5929 14.0035 12.4562 14.042 12.2335 14.042V16.042C12.6827 16.042 13.1261 15.9645 13.5328 15.7711L12.6741 13.9649ZM14.3575 12.39L13.4852 11.901L13.4827 11.9055L14.3575 12.39ZM14.9695 11.784L14.501 10.9005L14.4954 10.9035L14.9695 11.784ZM16.9795 11.946L16.3423 12.7168L16.3474 12.7209L16.9795 11.946ZM17.5555 12.978V13.978H18.7537L18.5394 12.7991L17.5555 12.978ZM16.1455 12.978L15.1865 13.2613L15.3982 13.978H16.1455V12.978ZM15.5815 12.864L14.7392 12.3249L14.7314 12.3371L14.724 12.3495L15.5815 12.864ZM15.5815 13.752L14.724 14.2665L14.7314 14.2789L14.7392 14.2911L15.5815 13.752ZM16.1455 13.638V12.638H15.3982L15.1865 13.3547L16.1455 13.638ZM17.5555 13.638L18.5394 13.8169L18.7537 12.638H17.5555V13.638ZM16.9795 14.67L16.3473 13.8951L16.3423 13.8993L16.9795 14.67ZM14.9695 14.832L14.4954 15.7125L14.501 15.7155L14.9695 14.832ZM14.3575 14.232L13.4796 14.7109L13.4839 14.7188L13.4884 14.7267L14.3575 14.232ZM15.1415 13.308C15.1415 13.0942 15.1843 12.9611 15.2323 12.8745L13.4827 11.9055C13.2426 12.3389 13.1415 12.8178 13.1415 13.308H15.1415ZM15.2298 12.879C15.2873 12.7763 15.3551 12.7121 15.4436 12.6645L14.4954 10.9035C14.0638 11.1359 13.7236 11.4757 13.4852 11.901L15.2298 12.879ZM15.438 12.6675C15.5405 12.6131 15.6762 12.574 15.8695 12.574V10.574C15.3907 10.574 14.9264 10.6749 14.501 10.9005L15.438 12.6675ZM15.8695 12.574C16.1091 12.574 16.2449 12.6362 16.3423 12.7167L17.6166 11.1753C17.1141 10.7598 16.5099 10.574 15.8695 10.574V12.574ZM16.3474 12.7209C16.4412 12.7975 16.5279 12.9163 16.5716 13.1569L18.5394 12.7991C18.4231 12.1597 18.1257 11.5905 17.6116 11.1711L16.3474 12.7209ZM17.5555 11.978H16.1455V13.978H17.5555V11.978ZM17.1045 12.6947C17.0432 12.4873 16.9232 12.2299 16.6832 12.0228C16.4272 11.802 16.1225 11.714 15.8395 11.714V13.714C15.7085 13.714 15.5307 13.67 15.3768 13.5372C15.2387 13.4181 15.1957 13.2927 15.1865 13.2613L17.1045 12.6947ZM15.8395 11.714C15.3521 11.714 14.9653 11.9717 14.7392 12.3249L16.4238 13.4031C16.3865 13.4613 16.3153 13.547 16.1966 13.616C16.074 13.6873 15.9464 13.714 15.8395 13.714V11.714ZM14.724 12.3495C14.5271 12.6776 14.4915 13.0401 14.4915 13.308H16.4915C16.4915 13.2582 16.4955 13.2413 16.4941 13.2487C16.4928 13.255 16.4819 13.307 16.439 13.3785L14.724 12.3495ZM14.4915 13.308C14.4915 13.5759 14.5271 13.9384 14.724 14.2665L16.439 13.2375C16.4819 13.309 16.4928 13.361 16.4941 13.3673C16.4955 13.3747 16.4915 13.3578 16.4915 13.308H14.4915ZM14.7392 14.2911C14.9653 14.6443 15.3521 14.902 15.8395 14.902V12.902C15.9464 12.902 16.074 12.9287 16.1966 13C16.3153 13.069 16.3865 13.1547 16.4238 13.2129L14.7392 14.2911ZM15.8395 14.902C16.1225 14.902 16.4272 14.814 16.6832 14.5932C16.9232 14.3861 17.0432 14.1287 17.1045 13.9213L15.1865 13.3547C15.1957 13.3233 15.2387 13.1979 15.3768 13.0788C15.5307 12.946 15.7085 12.902 15.8395 12.902V14.902ZM16.1455 14.638H17.5555V12.638H16.1455V14.638ZM16.5716 13.4591C16.5279 13.6997 16.4412 13.8185 16.3474 13.8951L17.6116 15.4449C18.1257 15.0255 18.4231 14.4563 18.5394 13.8169L16.5716 13.4591ZM16.3423 13.8993C16.2449 13.9798 16.1091 14.042 15.8695 14.042V16.042C16.5099 16.042 17.1141 15.8562 17.6166 15.4407L16.3423 13.8993ZM15.8695 14.042C15.6762 14.042 15.5405 14.0029 15.438 13.9485L14.501 15.7155C14.9264 15.9411 15.3907 16.042 15.8695 16.042V14.042ZM15.4436 13.9515C15.3511 13.9017 15.283 13.8365 15.2265 13.7373L13.4884 14.7267C13.728 15.1475 14.0679 15.4823 14.4954 15.7125L15.4436 13.9515ZM15.2354 13.7531C15.1842 13.6593 15.1415 13.5213 15.1415 13.308H13.1415C13.1415 13.7987 13.2428 14.2767 13.4796 14.7109L15.2354 13.7531ZM19.3097 12.24H18.3097V15.4353L20.1313 12.8101L19.3097 12.24ZM19.8077 11.772L20.3171 12.6326L20.3235 12.6288L20.3299 12.6249L19.8077 11.772ZM20.4197 11.592H21.4197V10.592H20.4197V11.592ZM20.4197 13.014V14.014H21.4197V13.014H20.4197ZM19.4837 13.146L18.8924 12.3396L18.8858 12.3444L18.8793 12.3493L19.4837 13.146ZM19.3097 15V16H20.3097V15H19.3097ZM17.9777 15H16.9777V16H17.9777V15ZM17.9777 11.616V10.616H16.9777V11.616H17.9777ZM19.3097 11.616H20.3097V10.616H19.3097V11.616ZM20.1313 12.8101C20.1893 12.7265 20.2507 12.6719 20.3171 12.6326L19.2984 10.9114C18.9728 11.1041 18.7022 11.3615 18.4881 11.6699L20.1313 12.8101ZM20.3299 12.6249C20.3824 12.5927 20.4074 12.592 20.4197 12.592V10.592C20.008 10.592 19.6251 10.7113 19.2856 10.9191L20.3299 12.6249ZM19.4197 11.592V13.014H21.4197V11.592H19.4197ZM20.4197 12.014H20.0417V14.014H20.4197V12.014ZM20.0417 12.014C19.71 12.014 19.2667 12.0651 18.8924 12.3396L20.0751 13.9524C20.0011 14.0067 19.9453 14.0197 19.9434 14.0201C19.9412 14.0207 19.9477 14.019 19.9651 14.0172C19.9823 14.0155 20.0074 14.014 20.0417 14.014V12.014ZM18.8793 12.3493C18.403 12.7107 18.3097 13.2496 18.3097 13.614H20.3097C20.3097 13.5824 20.3146 13.6128 20.2905 13.6775C20.2631 13.7514 20.2021 13.8562 20.0881 13.9427L18.8793 12.3493ZM18.3097 13.614V15H20.3097V13.614H18.3097ZM19.3097 14H17.9777V16H19.3097V14ZM18.9777 15V11.616H16.9777V15H18.9777ZM17.9777 12.616H19.3097V10.616H17.9777V12.616ZM18.3097 11.616V12.24H20.3097V11.616H18.3097ZM20.8925 11.16L21.5556 10.4114L21.5555 10.4114L20.8925 11.16ZM20.8925 10.218L21.5556 10.9666L21.5615 10.9614L21.5673 10.956L20.8925 10.218ZM22.0025 10.218L21.3277 10.956L21.3336 10.9614L21.3395 10.9666L22.0025 10.218ZM22.0025 11.16L21.3395 10.4114L21.3395 10.4114L22.0025 11.16ZM22.1105 11.616H23.1105V10.616H22.1105V11.616ZM22.1105 15V16H23.1105V15H22.1105ZM20.7785 15H19.7785V16H20.7785V15ZM20.7785 11.616V10.616H19.7785V11.616H20.7785ZM21.4505 10.346C21.4228 10.346 21.4276 10.3423 21.4532 10.3508C21.4819 10.3604 21.5198 10.3797 21.5556 10.4114L20.2295 11.9086C20.5934 12.231 21.0353 12.346 21.4505 12.346V10.346ZM21.5555 10.4114C21.5817 10.4346 21.619 10.4774 21.6474 10.5406C21.6757 10.6037 21.6825 10.659 21.6825 10.692H19.6825C19.6825 11.1645 19.8739 11.5936 20.2295 11.9086L21.5555 10.4114ZM21.6825 10.692C21.6825 10.72 21.6768 10.7725 21.6493 10.8346C21.6215 10.8973 21.584 10.9414 21.5556 10.9666L20.2295 9.46941C19.8688 9.78891 19.6825 10.2224 19.6825 10.692H21.6825ZM21.5673 10.956C21.5325 10.9878 21.4939 11.0087 21.4624 11.0196C21.4338 11.0294 21.4259 11.026 21.4505 11.026V9.026C21.0272 9.026 20.5811 9.14777 20.2177 9.47997L21.5673 10.956ZM21.4505 11.026C21.4713 11.026 21.4609 11.0289 21.431 11.0185C21.3983 11.0071 21.3607 10.9861 21.3277 10.956L22.6773 9.47997C22.3171 9.15068 21.875 9.026 21.4505 9.026V11.026ZM21.3395 10.9666C21.311 10.9414 21.2735 10.8973 21.2457 10.8346C21.2182 10.7725 21.2125 10.72 21.2125 10.692H23.2125C23.2125 10.2224 23.0263 9.78891 22.6656 9.46941L21.3395 10.9666ZM21.2125 10.692C21.2125 10.659 21.2194 10.6037 21.2477 10.5406C21.276 10.4774 21.3133 10.4346 21.3395 10.4114L22.6656 11.9086C23.0211 11.5936 23.2125 11.1645 23.2125 10.692H21.2125ZM21.3395 10.4114C21.3734 10.3813 21.4104 10.3619 21.4402 10.3519C21.4672 10.3427 21.4744 10.346 21.4505 10.346V12.346C21.8668 12.346 22.3047 12.2282 22.6656 11.9086L21.3395 10.4114ZM21.1105 11.616V15H23.1105V11.616H21.1105ZM22.1105 14H20.7785V16H22.1105V14ZM21.7785 15V11.616H19.7785V15H21.7785ZM20.7785 12.616H22.1105V10.616H20.7785V12.616ZM24.0441 12.078H23.0441L24.9246 12.5521L24.0441 12.078ZM24.4041 11.712L24.8954 12.583L24.9026 12.5789L24.4041 11.712ZM25.6881 11.784L25.137 12.6185L25.1482 12.6257L25.6881 11.784ZM26.1861 12.384L25.2757 12.7978L25.2795 12.8062L25.2835 12.8145L26.1861 12.384ZM26.1861 14.238L25.281 13.8129L25.2782 13.8189L26.1861 14.238ZM25.6881 14.838L26.2281 15.6798L26.2392 15.6725L25.6881 14.838ZM24.4041 14.91L23.8961 15.7714L23.909 15.779L23.9222 15.7862L24.4041 14.91ZM24.0441 14.538L24.9246 14.0639L23.0441 14.538H24.0441ZM24.0441 15V16H25.0441V15H24.0441ZM22.7121 15H21.7121V16H22.7121V15ZM22.7121 10.56V9.56H21.7121V10.56H22.7121ZM24.0441 10.56H25.0441V9.56H24.0441V10.56ZM24.8841 12.888L25.62 12.2109V12.2109L24.8841 12.888ZM24.1761 12.888L23.4402 12.2109V12.2109L24.1761 12.888ZM24.1761 13.728L23.4402 14.4051V14.4051L24.1761 13.728ZM24.9246 12.5521C24.9233 12.5544 24.9187 12.562 24.91 12.5707C24.9015 12.5794 24.8951 12.5832 24.8954 12.583L23.9128 10.841C23.5941 11.0208 23.3383 11.2796 23.1636 11.6039L24.9246 12.5521ZM24.9026 12.5789C24.8956 12.5829 24.8937 12.5824 24.9019 12.5804C24.911 12.5782 24.9336 12.574 24.9741 12.574V10.574C24.6129 10.574 24.244 10.6505 23.9056 10.8451L24.9026 12.5789ZM24.9741 12.574C25.0503 12.574 25.0952 12.5908 25.137 12.6185L26.2392 10.9495C25.857 10.6972 25.4259 10.574 24.9741 10.574V12.574ZM25.1482 12.6257C25.1746 12.6427 25.2231 12.6819 25.2757 12.7978L27.0965 11.9702C26.9091 11.5581 26.6256 11.1973 26.2281 10.9423L25.1482 12.6257ZM25.2835 12.8145C25.3301 12.9121 25.3721 13.0666 25.3721 13.308H27.3721C27.3721 12.8374 27.2901 12.3759 27.0887 11.9535L25.2835 12.8145ZM25.3721 13.308C25.3721 13.5488 25.3303 13.7079 25.281 13.8129L27.0912 14.6631C27.2899 14.2401 27.3721 13.7792 27.3721 13.308H25.3721ZM25.2782 13.8189C25.226 13.932 25.1746 13.9787 25.137 14.0035L26.2392 15.6725C26.6256 15.4173 26.9063 15.064 27.0941 14.6571L25.2782 13.8189ZM25.1482 13.9963C25.1052 14.0238 25.0564 14.042 24.9741 14.042V16.042C25.4198 16.042 25.847 15.9242 26.2281 15.6797L25.1482 13.9963ZM24.9741 14.042C24.9305 14.042 24.9045 14.0376 24.8922 14.0348C24.8807 14.0321 24.8802 14.0306 24.886 14.0338L23.9222 15.7862C24.2573 15.9705 24.62 16.042 24.9741 16.042V14.042ZM24.9121 14.0486C24.9095 14.0471 24.9091 14.0466 24.9102 14.0475C24.9113 14.0484 24.9133 14.0501 24.9157 14.0526C24.9182 14.0551 24.9203 14.0577 24.9221 14.0601C24.9238 14.0625 24.9246 14.064 24.9246 14.0639L23.1636 15.0121C23.3361 15.3325 23.5866 15.5888 23.8961 15.7714L24.9121 14.0486ZM23.0441 14.538V15H25.0441V14.538H23.0441ZM24.0441 14H22.7121V16H24.0441V14ZM23.7121 15V10.56H21.7121V15H23.7121ZM22.7121 11.56H24.0441V9.56H22.7121V11.56ZM23.0441 10.56V12.078H25.0441V10.56H23.0441ZM26.0221 13.308C26.0221 12.9605 25.9309 12.5488 25.62 12.2109L24.1482 13.5651C24.0897 13.5015 24.0553 13.4341 24.0376 13.3802C24.0211 13.33 24.0221 13.3014 24.0221 13.308H26.0221ZM25.62 12.2109C25.3263 11.8917 24.935 11.738 24.5301 11.738V13.738C24.4846 13.738 24.4153 13.7296 24.3365 13.6963C24.2563 13.6623 24.1928 13.6136 24.1482 13.5651L25.62 12.2109ZM24.5301 11.738C24.1252 11.738 23.7339 11.8917 23.4402 12.2109L24.912 13.5651C24.8674 13.6136 24.8039 13.6623 24.7238 13.6963C24.645 13.7296 24.5756 13.738 24.5301 13.738V11.738ZM23.4402 12.2109C23.1293 12.5488 23.0381 12.9605 23.0381 13.308H25.0381C25.0381 13.3014 25.0391 13.33 25.0226 13.3802C25.0049 13.4341 24.9706 13.5015 24.912 13.5651L23.4402 12.2109ZM23.0381 13.308C23.0381 13.6555 23.1293 14.0672 23.4402 14.4051L24.912 13.0509C24.9706 13.1145 25.0049 13.1819 25.0226 13.2358C25.0391 13.286 25.0381 13.3146 25.0381 13.308H23.0381ZM23.4402 14.4051C23.7339 14.7243 24.1252 14.878 24.5301 14.878V12.878C24.5756 12.878 24.645 12.8864 24.7238 12.9197C24.8039 12.9537 24.8674 13.0024 24.912 13.0509L23.4402 14.4051ZM24.5301 14.878C24.935 14.878 25.3263 14.7243 25.62 14.4051L24.1482 13.0509C24.1928 13.0024 24.2563 12.9537 24.3365 12.9197C24.4153 12.8864 24.4846 12.878 24.5301 12.878V14.878ZM25.62 14.4051C25.9309 14.0672 26.0221 13.6555 26.0221 13.308H24.0221C24.0221 13.3146 24.0211 13.286 24.0376 13.2358C24.0553 13.1819 24.0897 13.1145 24.1482 13.0509L25.62 14.4051ZM30.0482 13.542V14.542H30.9155L31.0382 13.6834L30.0482 13.542ZM27.9062 13.542V12.542H26.8354L26.9086 13.6103L27.9062 13.542ZM28.5842 13.782V12.782H27.9577L27.6844 13.3457L28.5842 13.782ZM29.9942 13.782L30.9748 13.9781L31.214 12.782H29.9942V13.782ZM29.6882 14.43L28.9121 13.7994L28.9106 13.8013L29.6882 14.43ZM29.1062 14.88L29.5283 15.7866L29.535 15.7834L29.1062 14.88ZM27.4382 14.832L26.9641 15.7125L26.9697 15.7155L27.4382 14.832ZM26.8262 14.232L25.9483 14.7109L25.9527 14.7188L25.9572 14.7267L26.8262 14.232ZM26.8262 12.39L25.9539 11.901L25.9514 11.9055L26.8262 12.39ZM27.4382 11.784L26.9697 10.9005L26.9641 10.9035L27.4382 11.784ZM29.2322 11.784L28.7581 12.6645L28.7662 12.6688L28.7743 12.673L29.2322 11.784ZM29.8442 12.372L28.9726 12.8623L28.9785 12.8725L29.8442 12.372ZM28.7162 12.96V13.96H29.7162V12.96H28.7162ZM28.6082 12.708L27.9681 13.4762L27.981 13.487L27.9943 13.4974L28.6082 12.708ZM27.9242 12.96L26.9393 12.7872L26.7335 13.96H27.9242V12.96ZM29.0662 13.278C29.0662 13.3266 29.0631 13.3671 29.0583 13.4006L31.0382 13.6834C31.0574 13.5489 31.0662 13.4134 31.0662 13.278H29.0662ZM30.0482 12.542H27.9062V14.542H30.0482V12.542ZM26.9086 13.6103C26.9257 13.8606 26.9939 14.2108 27.2454 14.5117C27.5308 14.8533 27.9222 14.98 28.2722 14.98V12.98C28.3245 12.98 28.411 12.9886 28.5121 13.0313C28.6176 13.0758 28.7099 13.1453 28.7801 13.2293C28.9096 13.3842 28.9068 13.5154 28.9039 13.4737L26.9086 13.6103ZM28.2722 14.98C28.5013 14.98 28.7563 14.9257 28.9941 14.7748C29.2307 14.6247 29.3866 14.4192 29.484 14.2183L27.6844 13.3457C27.7179 13.2768 27.7898 13.1703 27.9224 13.0862C28.0561 13.0013 28.1871 12.98 28.2722 12.98V14.98ZM28.5842 14.782H29.9942V12.782H28.5842V14.782ZM29.0137 13.5859C28.9979 13.6648 28.9668 13.7321 28.9121 13.7994L30.4643 15.0606C30.7216 14.7439 30.8946 14.3792 30.9748 13.9781L29.0137 13.5859ZM28.9106 13.8013C28.8603 13.8635 28.7892 13.9236 28.6775 13.9766L29.535 15.7834C29.8953 15.6124 30.2122 15.3725 30.4659 15.0587L28.9106 13.8013ZM28.6842 13.9734C28.5964 14.0143 28.4863 14.042 28.3382 14.042V16.042C28.7501 16.042 29.152 15.9617 29.5283 15.7866L28.6842 13.9734ZM28.3382 14.042C28.145 14.042 28.0093 14.0029 27.9067 13.9485L26.9697 15.7155C27.3952 15.9411 27.8595 16.042 28.3382 16.042V14.042ZM27.9123 13.9515C27.8199 13.9017 27.7517 13.8365 27.6953 13.7373L25.9572 14.7267C26.1967 15.1475 26.5366 15.4823 26.9641 15.7125L27.9123 13.9515ZM27.7041 13.7531C27.6529 13.6593 27.6102 13.5213 27.6102 13.308H25.6102C25.6102 13.7987 25.7115 14.2767 25.9483 14.7109L27.7041 13.7531ZM27.6102 13.308C27.6102 13.0942 27.6531 12.9611 27.701 12.8745L25.9514 11.9055C25.7114 12.3389 25.6102 12.8178 25.6102 13.308H27.6102ZM27.6985 12.879C27.7561 12.7763 27.8239 12.7121 27.9123 12.6645L26.9641 10.9035C26.5326 11.1359 26.1924 11.4757 25.954 11.901L27.6985 12.879ZM27.9067 12.6675C28.0093 12.6131 28.145 12.574 28.3382 12.574V10.574C27.8595 10.574 27.3952 10.6749 26.9697 10.9005L27.9067 12.6675ZM28.3382 12.574C28.5318 12.574 28.6629 12.6132 28.7581 12.6645L29.7063 10.9035C29.2816 10.6748 28.8167 10.574 28.3382 10.574V12.574ZM28.7743 12.673C28.8664 12.7204 28.9257 12.7788 28.9727 12.8623L30.7158 11.8817C30.4748 11.4532 30.126 11.1196 29.6902 10.895L28.7743 12.673ZM28.9785 12.8725C29.0241 12.9514 29.0662 13.0744 29.0662 13.278H31.0662C31.0662 12.7856 30.9604 12.3046 30.71 11.8715L28.9785 12.8725ZM29.7162 12.96C29.7162 12.6174 29.5933 12.2073 29.2222 11.9186L27.9943 13.4974C27.8965 13.4213 27.8186 13.3201 27.7701 13.2069C27.7242 13.0997 27.7162 13.0097 27.7162 12.96H29.7162ZM29.2484 11.9398C28.9698 11.7076 28.6426 11.618 28.3382 11.618V13.618C28.2994 13.618 28.2405 13.6125 28.1705 13.5892C28.0987 13.5652 28.029 13.527 27.9681 13.4762L29.2484 11.9398ZM28.3382 11.618C28.0625 11.618 27.7193 11.686 27.4209 11.9325C27.12 12.1811 26.9881 12.5089 26.9393 12.7872L28.9092 13.1328C28.9004 13.1831 28.8574 13.3399 28.6946 13.4745C28.5342 13.607 28.378 13.618 28.3382 13.618V11.618ZM27.9242 13.96H28.7162V11.96H27.9242V13.96ZM30.2955 10.4512V9.4512H29.2955V10.4512H30.2955ZM31.4691 10.4512H32.4691V9.4512H31.4691V10.4512ZM31.4691 10.9084V11.9084H32.4691V10.9084H31.4691ZM31.1595 10.9084V9.9084H30.1595V10.9084H31.1595ZM31.1595 11.7112V12.7112H32.1595V11.7112H31.1595ZM30.6051 11.7112H29.6051V12.7112H30.6051V11.7112ZM30.6051 10.9084H31.6051V9.9084H30.6051V10.9084ZM30.2955 10.9084H29.2955V11.9084H30.2955V10.9084ZM33.4887 10.4512H34.4887V9.4512H33.4887V10.4512ZM33.4887 11.7112V12.7112H34.4887V11.7112H33.4887ZM32.9811 11.7112L31.9813 11.7292L31.9989 12.7112H32.9811V11.7112ZM32.9703 11.11L33.9701 11.092L32.0441 10.7329L32.9703 11.11ZM32.7255 11.7112V12.7112H33.398L33.6517 12.0883L32.7255 11.7112ZM32.3547 11.7112L31.4175 12.06L31.6599 12.7112H32.3547V11.7112ZM32.1135 11.0632L33.0507 10.7144L31.1135 11.0632H32.1135ZM32.1135 11.7112V12.7112H33.1135V11.7112H32.1135ZM31.6311 11.7112H30.6311V12.7112H31.6311V11.7112ZM31.6311 10.4512V9.4512H30.6311V10.4512H31.6311ZM32.3907 10.4512L33.343 10.146L33.1203 9.4512H32.3907V10.4512ZM32.5707 11.0128L31.6184 11.318L32.4624 13.9514L33.4979 11.3873L32.5707 11.0128ZM32.7975 10.4512V9.4512H32.1229L31.8703 10.0767L32.7975 10.4512ZM30.2955 11.4512H31.4691V9.4512H30.2955V11.4512ZM30.4691 10.4512V10.9084H32.4691V10.4512H30.4691ZM31.4691 9.9084H31.1595V11.9084H31.4691V9.9084ZM30.1595 10.9084V11.7112H32.1595V10.9084H30.1595ZM31.1595 10.7112H30.6051V12.7112H31.1595V10.7112ZM31.6051 11.7112V10.9084H29.6051V11.7112H31.6051ZM30.6051 9.9084H30.2955V11.9084H30.6051V9.9084ZM31.2955 10.9084V10.4512H29.2955V10.9084H31.2955ZM32.4887 10.4512V11.7112H34.4887V10.4512H32.4887ZM33.4887 10.7112H32.9811V12.7112H33.4887V10.7112ZM33.9809 11.6932L33.9701 11.092L31.9705 11.128L31.9813 11.7292L33.9809 11.6932ZM32.0441 10.7329L31.7993 11.3341L33.6517 12.0883L33.8965 11.4871L32.0441 10.7329ZM32.7255 10.7112H32.3547V12.7112H32.7255V10.7112ZM33.2919 11.3624L33.0507 10.7144L31.1763 11.412L31.4175 12.06L33.2919 11.3624ZM31.1135 11.0632V11.7112H33.1135V11.0632H31.1135ZM32.1135 10.7112H31.6311V12.7112H32.1135V10.7112ZM32.6311 11.7112V10.4512H30.6311V11.7112H32.6311ZM31.6311 11.4512H32.3907V9.4512H31.6311V11.4512ZM31.4384 10.7564L31.6184 11.318L33.523 10.7076L33.343 10.146L31.4384 10.7564ZM33.4979 11.3873L33.7247 10.8257L31.8703 10.0767L31.6435 10.6383L33.4979 11.3873ZM32.7975 11.4512H33.4887V9.4512H32.7975V11.4512Z" fill="white"/>
</svg>
