<svg width="24" height="24" viewBox="0 0 24 24" fill="none" xmlns="http://www.w3.org/2000/svg">
<g id="News Paper">
<g id="news-paper--newspaper-periodical-fold-content-entertainment">
<path id="Vector" d="M23.1426 7.71429V18.8571C23.1426 19.4254 22.9169 19.9706 22.515 20.3724C22.1132 20.7742 21.5681 21 20.9998 21M20.9998 21C20.4315 21 19.8864 20.7742 19.4845 20.3724C19.0827 19.9706 18.8569 19.4254 18.8569 18.8571V3.85714C18.8569 3.62981 18.7666 3.41179 18.606 3.25106C18.4452 3.09031 18.2271 3 17.9998 3H1.71408C1.48675 3 1.26873 3.09031 1.10799 3.25106C0.947239 3.41179 0.856934 3.62981 0.856934 3.85714V19.2857C0.856934 19.7403 1.03755 20.1765 1.35904 20.4979C1.68053 20.8193 2.11656 21 2.57122 21H20.9998Z" stroke="#636363" stroke-width="1.71429" stroke-linecap="round" stroke-linejoin="round"/>
<path id="Vector_2" d="M13.7143 7.28564H6V11.5714H13.7143V7.28564Z" stroke="#636363" stroke-width="1.71429" stroke-linecap="round" stroke-linejoin="round"/>
<path id="Vector_3" d="M6 16.7144H13.7143" stroke="#636363" stroke-width="1.71429" stroke-linecap="round" stroke-linejoin="round"/>
</g>
</g>
</svg>
