<svg width="24" height="24" viewBox="0 0 24 24" fill="none" xmlns="http://www.w3.org/2000/svg">
<g id="File Dollar" clip-path="url(#clip0_188_19818)">
<g id="file-dollar--common-money-currency-cash-file">
<path id="Vector" d="M14.5712 0.857178H2.57122C2.11656 0.857178 1.68053 1.03779 1.35904 1.35928C1.03755 1.68077 0.856934 2.1168 0.856934 2.57146V21.4286C0.856934 21.8832 1.03755 22.3193 1.35904 22.6408C1.68053 22.9622 2.11656 23.1429 2.57122 23.1429H21.4284C21.883 23.1429 22.3191 22.9622 22.6405 22.6408C22.962 22.3193 23.1426 21.8832 23.1426 21.4286V9.42861L14.5712 0.857178Z" stroke="#636363" stroke-width="1.6" stroke-linecap="round" stroke-linejoin="round"/>
<path id="Vector_2" d="M14.5713 8.57146V0.857178L23.1427 9.42861H15.4284C15.2011 9.42861 14.9831 9.3383 14.8223 9.17755C14.6616 9.01682 14.5713 8.79879 14.5713 8.57146Z" stroke="#636363" stroke-width="1.6" stroke-linecap="round" stroke-linejoin="round"/>
<path id="Vector_3" d="M14.5713 16.2856H19.7141" stroke="#636363" stroke-width="1.6" stroke-linecap="round" stroke-linejoin="round"/>
<path id="Vector 3" d="M10.6791 8.95252C10.5787 8.66862 10.4239 8.41047 10.2271 8.19063C9.80855 7.723 9.20034 7.42871 8.52339 7.42871H6.75418C5.62734 7.42871 4.71387 8.34218 4.71387 9.46902C4.71387 10.4278 5.3815 11.2573 6.31816 11.4622L9.01184 12.0514C10.0612 12.281 10.8091 13.2109 10.8091 14.285C10.8091 15.5474 9.78575 16.5716 8.52339 16.5716H6.99958C6.00436 16.5716 5.15771 15.9355 4.84393 15.0478" stroke="#636363" stroke-width="1.6" stroke-linecap="round" stroke-linejoin="round"/>
<path id="Vector 2489" d="M7.76172 7.42853V5.14282" stroke="#636363" stroke-width="1.6" stroke-linecap="round" stroke-linejoin="round"/>
<path id="Vector 2490" d="M7.76172 18.8571V16.5713" stroke="#636363" stroke-width="1.6" stroke-linecap="round" stroke-linejoin="round"/>
</g>
</g>
<defs>
<clipPath id="clip0_188_19818">
<rect width="24" height="24" fill="white"/>
</clipPath>
</defs>
</svg>
