<svg width="24" height="20" viewBox="0 0 24 20" fill="none" xmlns="http://www.w3.org/2000/svg">
<g id="Frame 1000002223" clip-path="url(#clip0_188_19806)">
<path id="Polygon 43" d="M11.1595 17.8207L1.66319 8.5007C1.27345 8.11819 1.19112 7.52077 1.46287 7.04709L4.70107 1.40288C4.915 1.03 5.31204 0.800045 5.74193 0.800045L18.2581 0.800045C18.688 0.800045 19.085 1.03 19.2989 1.40288L22.5371 7.04709C22.8089 7.52076 22.7266 8.11819 22.3368 8.5007L12.8405 17.8207C12.3738 18.2788 11.6262 18.2788 11.1595 17.8207Z" stroke="#636363" stroke-width="1.6" stroke-linejoin="round"/>
<path id="Vector_3" d="M12 12.5L15.5 7" stroke="#636363" stroke-width="1.6" stroke-linecap="round" stroke-linejoin="round"/>
<path id="Vector_5" d="M12 2.71429V1" stroke="#636363" stroke-width="1.6" stroke-linecap="round" stroke-linejoin="round"/>
<path id="Vector_6" d="M7 4L5 1" stroke="#636363" stroke-width="1.6" stroke-linecap="round" stroke-linejoin="round"/>
<path id="Vector_6_2" d="M17 4L19 1" stroke="#636363" stroke-width="1.6" stroke-linecap="round" stroke-linejoin="round"/>
<path id="Vector_7" d="M5.0001 8.50055L1.50016 7.99972" stroke="#636363" stroke-width="1.6" stroke-linecap="round" stroke-linejoin="round"/>
<path id="Vector_7_2" d="M18.4999 8.50055L21.9998 7.99972" stroke="#636363" stroke-width="1.6" stroke-linecap="round" stroke-linejoin="round"/>
</g>
<defs>
<clipPath id="clip0_188_19806">
<rect width="24" height="19.7666" fill="white"/>
</clipPath>
</defs>
</svg>
