<svg width="24" height="24" viewBox="0 0 24 24" fill="none" xmlns="http://www.w3.org/2000/svg">
<g id="Workflow Teamwork Handshake" clip-path="url(#clip0_188_19793)">
<path id="Vector" d="M10.1682 11.0539L14.6932 8.85385C15.087 8.66082 15.5414 8.63213 15.9564 8.77409C16.3715 8.91605 16.7131 9.21704 16.9062 9.61085L19.3342 14.5589C19.5272 14.9527 19.5559 15.4071 19.414 15.8221C19.272 16.2371 18.971 16.5787 18.5772 16.7719L12.3912 19.7899L9.86719 23.0079" stroke="#636363" stroke-width="1.6" stroke-linecap="round" stroke-linejoin="round"/>
<path id="Vector_2" d="M3.72993 15.1698C3.63279 15.3649 3.57519 15.5772 3.56043 15.7947C3.54568 16.0121 3.57406 16.2303 3.64395 16.4367C3.71384 16.6431 3.82386 16.8337 3.96767 16.9974C4.11149 17.1612 4.28626 17.2948 4.48193 17.3908L5.71393 17.9998C6.04563 18.1633 6.40686 18.2584 6.77609 18.2794C7.14532 18.3003 7.51499 18.2467 7.86307 18.1218C8.21114 17.9968 8.5305 17.8031 8.8021 17.5521C9.0737 17.3011 9.29198 16.9979 9.44393 16.6608L10.6299 14.0328C10.9242 13.381 10.9537 12.6404 10.712 11.9673C10.4704 11.2943 9.97657 10.7415 9.33493 10.4258L8.20493 9.86979C7.8133 9.67822 7.36184 9.64913 6.94886 9.78885C6.53587 9.92857 6.19481 10.2258 5.99993 10.6158L3.72993 15.1698Z" stroke="#636363" stroke-width="1.6" stroke-linecap="round" stroke-linejoin="round"/>
<path id="Vector_3" d="M5.4788 17.8799L1.4458 23.0079" stroke="#636363" stroke-width="1.6" stroke-linecap="round" stroke-linejoin="round"/>
<path id="Vector_4" d="M11.9961 20.2891L14.1251 23.0081" stroke="#636363" stroke-width="1.6" stroke-linecap="round" stroke-linejoin="round"/>
<path id="Vector_5" d="M17.9189 17.0889L22.5539 23.0079" stroke="#636363" stroke-width="1.6" stroke-linecap="round" stroke-linejoin="round"/>
<path id="Vector_6" d="M13.9912 9.14903L9.24718 6.78303C8.97122 6.64764 8.65278 6.62742 8.36192 6.72682C8.07105 6.82621 7.83158 7.03708 7.69618 7.31303L7.50818 7.70003C7.41248 7.90146 7.35851 8.12016 7.3495 8.34298C7.34048 8.5658 7.37663 8.78815 7.45575 8.99664C7.53487 9.20514 7.65533 9.39548 7.8099 9.55623C7.96447 9.71698 8.14994 9.84481 8.35518 9.93203L8.95518 10.239" stroke="#636363" stroke-width="1.6" stroke-linecap="round" stroke-linejoin="round"/>
<path id="Vector_7" d="M10.2588 7.28786L12.7648 6.08186C13.0407 5.94647 13.3592 5.92625 13.6501 6.02564C13.9409 6.12504 14.1804 6.33591 14.3158 6.61186L14.4998 6.99986C14.6003 7.20479 14.6595 7.42751 14.674 7.65531C14.6885 7.88312 14.6579 8.11154 14.5841 8.32753C14.5103 8.54353 14.3946 8.74286 14.2437 8.91416C14.0929 9.08545 13.9097 9.22535 13.7048 9.32586L12.6158 9.85986" stroke="#636363" stroke-width="1.6" stroke-linecap="round" stroke-linejoin="round"/>
<path id="Vector_8" d="M11.9961 0.992188V2.99219" stroke="#636363" stroke-width="1.6" stroke-linecap="round" stroke-linejoin="round"/>
<path id="Vector_9" d="M21.542 4.9458L20.127 6.3598" stroke="#636363" stroke-width="1.6" stroke-linecap="round" stroke-linejoin="round"/>
<path id="Vector_10" d="M2.4502 4.9458L3.8642 6.3598" stroke="#636363" stroke-width="1.6" stroke-linecap="round" stroke-linejoin="round"/>
</g>
<defs>
<clipPath id="clip0_188_19793">
<rect width="24" height="24" fill="white"/>
</clipPath>
</defs>
</svg>
