<svg width="12" height="12" viewBox="0 0 12 12" fill="none" xmlns="http://www.w3.org/2000/svg">
<g clip-path="url(#clip0_188_23081)">
<path d="M10.929 4.43052C11.3745 3.98502 11.6248 3.3808 11.6248 2.75077C11.6248 2.12074 11.3745 1.51652 10.929 1.07102C10.4835 0.625522 9.87932 0.375244 9.24929 0.375244C8.61926 0.375244 8.01504 0.625522 7.56954 1.07102L2.53004 6.11052C2.09398 6.54671 1.81101 7.11247 1.72354 7.72302L1.52354 9.13402L0.514042 10.142C0.425008 10.2312 0.375 10.352 0.375 10.478C0.375 10.604 0.425008 10.7249 0.514042 10.814L1.18604 11.486C1.2752 11.5751 1.39604 11.6251 1.52204 11.6251C1.64804 11.6251 1.76889 11.5751 1.85804 11.486L2.86604 10.478L4.27704 10.278C4.88759 10.1906 5.45335 9.90759 5.88954 9.47152L10.929 4.43052Z" stroke="white" stroke-linecap="round" stroke-linejoin="round"/>
<path d="M4.88184 1.07129L10.9293 7.11879" stroke="white" stroke-linecap="round" stroke-linejoin="round"/>
</g>
<defs>
<clipPath id="clip0_188_23081">
<rect width="12" height="12" fill="white"/>
</clipPath>
</defs>
</svg>
