<svg width="16" height="16" viewBox="0 0 16 16" fill="none" xmlns="http://www.w3.org/2000/svg">
<g id="Mail Chat Bubble Oval Check">
<path id="Vector" d="M11.4284 5.42871L6.857 10.5716L4.57129 8.85728" stroke="white" stroke-linecap="round" stroke-linejoin="round"/>
<path id="Vector_2" d="M7.99817 0.640626C6.66693 0.641041 5.36075 1.00253 4.21872 1.6866C3.07669 2.37067 2.1416 3.35168 1.51302 4.52517C0.884449 5.69865 0.585945 7.02066 0.649303 8.35038C0.71266 9.6801 1.13551 10.9677 1.87281 12.0761L0.638672 15.3596L4.77131 14.6123C5.76644 15.0986 6.85849 15.354 7.96606 15.3595C9.07364 15.365 10.1682 15.1204 11.1681 14.644C12.168 14.1676 13.0474 13.4716 13.7409 12.608C14.4344 11.7444 14.924 10.7354 15.1733 9.65624C15.4225 8.57706 15.4249 7.45554 15.1805 6.37529C14.9359 5.29503 14.4506 4.2839 13.7609 3.41727C13.0712 2.55063 12.1949 1.85085 11.197 1.37009C10.1992 0.889322 9.10575 0.639973 7.99817 0.640626Z" stroke="white" stroke-linecap="round" stroke-linejoin="round"/>
</g>
</svg>
