<svg width="44" height="44" viewBox="0 0 44 44" fill="none" xmlns="http://www.w3.org/2000/svg">
<g id="Amazon Web Service Cluster" clip-path="url(#clip0_188_26582)">
<path id="Vector" d="M16.0417 27.593C16.0417 28.693 15.3083 29.4263 14.2083 29.4263H3.20833C2.10833 29.4263 1.375 28.693 1.375 27.593V16.5931C1.375 15.4931 2.10833 14.7598 3.20833 14.7598H14.2083C15.3083 14.7598 16.0417 15.4931 16.0417 16.5931V27.593Z" stroke="#636363" stroke-width="2" stroke-miterlimit="10" stroke-linecap="round" stroke-linejoin="round"/>
<path id="Vector_2" d="M31.6248 6.875C31.6248 7.975 30.8915 8.70833 29.7915 8.70833H26.1248C25.0248 8.70833 24.2915 7.975 24.2915 6.875V3.20833C24.2915 2.10833 25.0248 1.375 26.1248 1.375H29.7915C30.8915 1.375 31.6248 2.10833 31.6248 3.20833V6.875Z" stroke="#636363" stroke-width="2" stroke-miterlimit="10" stroke-linecap="round" stroke-linejoin="round"/>
<path id="Vector_3" d="M42.6253 17.5098C42.6253 18.6097 41.892 19.343 40.792 19.343H37.1253C36.0253 19.343 35.292 18.6097 35.292 17.5098V13.8431C35.292 12.7431 36.0253 12.0098 37.1253 12.0098H40.792C41.892 12.0098 42.6253 12.7431 42.6253 13.8431V17.5098Z" stroke="#636363" stroke-width="2" stroke-miterlimit="10" stroke-linecap="round" stroke-linejoin="round"/>
<path id="Vector_4" d="M42.6248 30.3467C42.6248 31.4467 41.8915 32.18 40.7915 32.18H37.1248C36.0248 32.18 35.2915 31.4467 35.2915 30.3467V26.68C35.2915 25.58 36.0248 24.8467 37.1248 24.8467H40.7915C41.8915 24.8467 42.6248 25.58 42.6248 26.68V30.3467Z" stroke="#636363" stroke-width="2" stroke-miterlimit="10" stroke-linecap="round" stroke-linejoin="round"/>
<path id="Vector_5" d="M31.6253 40.7988C31.6253 41.8988 30.892 42.6322 29.792 42.6322H26.1253C25.0253 42.6322 24.292 41.8988 24.292 40.7988V37.1322C24.292 36.0322 25.0253 35.2988 26.1253 35.2988H29.792C30.892 35.2988 31.6253 36.0322 31.6253 37.1322V40.7988Z" stroke="#636363" stroke-width="2" stroke-miterlimit="10" stroke-linecap="round" stroke-linejoin="round"/>
<path id="Vector_6" d="M35.292 15.6679L16.042 22.0845L24.8792 8.27148" stroke="#636363" stroke-width="2" stroke-miterlimit="10" stroke-linecap="round" stroke-linejoin="round"/>
<path id="Vector_7" d="M35.2915 28.5133L16.0415 22.0967L24.807 35.7908" stroke="#636363" stroke-width="2" stroke-miterlimit="10" stroke-linecap="round" stroke-linejoin="round"/>
<path id="Vector_8" d="M31.2871 8.00293L35.7988 12.5146" stroke="#636363" stroke-width="2" stroke-miterlimit="10" stroke-linecap="round" stroke-linejoin="round"/>
<path id="Vector_9" d="M38.9585 19.3467V24.8467" stroke="#636363" stroke-width="2" stroke-miterlimit="10" stroke-linecap="round" stroke-linejoin="round"/>
<path id="Vector_10" d="M31.2041 35.8992L35.7123 31.5713" stroke="#636363" stroke-width="2" stroke-miterlimit="10" stroke-linecap="round" stroke-linejoin="round"/>
</g>
<defs>
<clipPath id="clip0_188_26582">
<rect width="44" height="44" fill="white"/>
</clipPath>
</defs>
</svg>
