<svg width="44" height="44" viewBox="0 0 44 44" fill="none" xmlns="http://www.w3.org/2000/svg">
<g id="Amazon Quicksight Dashboard And Visualizations" clip-path="url(#clip0_188_26657)">
<path id="Vector" d="M41.1582 22.9668V38.4156C41.1582 40.4322 39.5082 42.0822 37.4915 42.0822H6.32487C4.3082 42.0822 2.6582 40.4322 2.6582 38.4156" stroke="#636363" stroke-width="2" stroke-miterlimit="10" stroke-linecap="round" stroke-linejoin="round"/>
<path id="Vector_2" d="M2.6582 20.2561V5.58952C2.6582 3.57285 4.3082 1.92285 6.32487 1.92285H37.4915C39.5082 1.92285 41.1582 3.57285 41.1582 5.58952" stroke="#636363" stroke-width="2" stroke-miterlimit="10" stroke-linecap="round" stroke-linejoin="round"/>
<path id="Vector_3" d="M23.7417 28.6903L36.6418 16.8652" stroke="#636363" stroke-width="2" stroke-miterlimit="10" stroke-linecap="round" stroke-linejoin="round"/>
<path id="Vector_4" d="M18.7916 14.7598L7.43799 26.2908" stroke="#636363" stroke-width="2" stroke-miterlimit="10" stroke-linecap="round" stroke-linejoin="round"/>
<path id="Vector_5" d="M20.9918 15.4867C23.0169 15.4867 24.6585 13.845 24.6585 11.82C24.6585 9.79494 23.0169 8.15332 20.9918 8.15332C18.9667 8.15332 17.3252 9.79494 17.3252 11.82C17.3252 13.845 18.9667 15.4867 20.9918 15.4867Z" stroke="#636363" stroke-width="2" stroke-miterlimit="10" stroke-linecap="round" stroke-linejoin="round"/>
<path id="Vector_6" d="M38.9587 17.6888C40.9838 17.6888 42.6253 16.0472 42.6253 14.0221C42.6253 11.9971 40.9838 10.3555 38.9587 10.3555C36.9336 10.3555 35.292 11.9971 35.292 14.0221C35.292 16.0472 36.9336 17.6888 38.9587 17.6888Z" stroke="#636363" stroke-width="2" stroke-miterlimit="10" stroke-linecap="round" stroke-linejoin="round"/>
<path id="Vector_7" d="M5.04167 32.7279C7.06671 32.7279 8.70833 31.0863 8.70833 29.0612C8.70833 27.0361 7.06671 25.3945 5.04167 25.3945C3.01662 25.3945 1.375 27.0361 1.375 29.0612C1.375 31.0863 3.01662 32.7279 5.04167 32.7279Z" stroke="#636363" stroke-width="2" stroke-miterlimit="10" stroke-linecap="round" stroke-linejoin="round"/>
<path id="Vector_8" d="M20.9918 34.93C23.0169 34.93 24.6585 33.2884 24.6585 31.2633C24.6585 29.2384 23.0169 27.5967 20.9918 27.5967C18.9667 27.5967 17.3252 29.2384 17.3252 31.2633C17.3252 33.2884 18.9667 34.93 20.9918 34.93Z" stroke="#636363" stroke-width="2" stroke-miterlimit="10" stroke-linecap="round" stroke-linejoin="round"/>
<path id="Vector_9" d="M20.9917 15.4902V27.5903" stroke="#636363" stroke-width="2" stroke-miterlimit="10" stroke-linecap="round" stroke-linejoin="round"/>
</g>
<defs>
<clipPath id="clip0_188_26657">
<rect width="44" height="44" fill="white"/>
</clipPath>
</defs>
</svg>
