<svg width="44" height="44" viewBox="0 0 44 44" fill="none" xmlns="http://www.w3.org/2000/svg">
<g id="Browser Favorite Star" clip-path="url(#clip0_188_26573)">
<g id="browser-favorite-star--window-star-app-code-favorite-like-apps">
<path id="Vector" d="M1.57178 10.9839H42.4289" stroke="#636363" stroke-width="2" stroke-linecap="round" stroke-linejoin="round"/>
<path id="Vector_2" d="M39.2861 1.57373H4.71463C2.97888 1.57373 1.57178 2.98083 1.57178 4.71659V39.288C1.57178 41.0238 2.97888 42.4309 4.71463 42.4309H39.2861C41.0219 42.4309 42.4289 41.0238 42.4289 39.288V4.71659C42.4289 2.98083 41.0219 1.57373 39.2861 1.57373Z" stroke="#636363" stroke-width="2" stroke-linecap="round" stroke-linejoin="round"/>
<path id="Vector_3" d="M22.6949 17.5165L25.0315 22.2167C25.0837 22.3356 25.1666 22.4385 25.2716 22.5149C25.3766 22.5912 25.5 22.6384 25.6292 22.6515L30.8185 23.4394C30.9669 23.4587 31.1067 23.5198 31.2216 23.6157C31.3365 23.7115 31.4217 23.8381 31.4673 23.9806C31.5128 24.123 31.5169 24.2756 31.4792 24.4203C31.4412 24.5651 31.3628 24.696 31.2532 24.7979L27.4224 28.4385C27.3652 28.5475 27.3354 28.6687 27.3354 28.7917C27.3354 28.9148 27.3652 29.036 27.4224 29.1449L28.1559 34.3071C28.1872 34.4564 28.1746 34.6113 28.1195 34.7537C28.0644 34.8957 27.9693 35.0189 27.8456 35.1079C27.7219 35.1971 27.575 35.2484 27.4227 35.2559C27.2705 35.2631 27.1193 35.226 26.9877 35.1494L22.3689 32.7042C22.2494 32.6502 22.1197 32.6222 21.9885 32.6222C21.8573 32.6222 21.7277 32.6502 21.6081 32.7042L16.9893 35.1494C16.8577 35.226 16.7065 35.2631 16.5542 35.2559C16.402 35.2484 16.2551 35.1971 16.1314 35.1079C16.0078 35.0189 15.9126 34.8957 15.8575 34.7537C15.8024 34.6113 15.7898 34.4564 15.8211 34.3071L16.6905 29.1449C16.7279 29.0251 16.735 28.8979 16.7113 28.7747C16.6876 28.6514 16.6338 28.5359 16.5547 28.4385L12.7238 24.7707C12.6222 24.6677 12.5508 24.5388 12.5176 24.398C12.4844 24.2573 12.4906 24.1101 12.5355 23.9726C12.5804 23.8351 12.6623 23.7126 12.7722 23.6186C12.882 23.5245 13.0157 23.4625 13.1585 23.4394L18.3478 22.6786C18.477 22.6655 18.6004 22.6184 18.7054 22.5421C18.8104 22.4657 18.8933 22.3628 18.9455 22.2439L21.2821 17.5436C21.3446 17.4106 21.4431 17.2977 21.5665 17.2177C21.6898 17.1377 21.8331 17.0938 21.9801 17.091C22.127 17.0881 22.2719 17.1265 22.3982 17.2017C22.5245 17.2769 22.6273 17.3859 22.6949 17.5165Z" stroke="#636363" stroke-width="2" stroke-linecap="round" stroke-linejoin="round"/>
</g>
</g>
<defs>
<clipPath id="clip0_188_26573">
<rect width="44" height="44" fill="white"/>
</clipPath>
</defs>
</svg>
