<svg width="44" height="44" viewBox="0 0 44 44" fill="none" xmlns="http://www.w3.org/2000/svg">
<g id="Condition">
<path id="Vector" d="M21.9715 33.9167L11.8882 26.5833L21.9715 19.25L32.0548 26.5833L21.9715 33.9167Z" stroke="#636363" stroke-width="2" stroke-linecap="round" stroke-linejoin="round"/>
<path id="Vector_2" d="M21.9717 19.2572V3.67383" stroke="#636363" stroke-width="2" stroke-linecap="round" stroke-linejoin="round"/>
<path id="Vector_3" d="M32.0547 26.5762H40.763C41.2493 26.5762 41.7156 26.7693 42.0594 27.1131C42.4032 27.457 42.5964 27.9233 42.5964 28.4095V40.3262" stroke="#636363" stroke-width="2" stroke-linecap="round" stroke-linejoin="round"/>
<path id="Vector_4" d="M11.8863 26.5762H3.23665C2.75042 26.5762 2.28411 26.7693 1.94029 27.1131C1.59647 27.457 1.40332 27.9233 1.40332 28.4095V40.3262" stroke="#636363" stroke-width="2" stroke-linecap="round" stroke-linejoin="round"/>
<path id="Vector_5" d="M3.17969 15.6793L6.47969 18.9793L14.1797 11.2793" stroke="#636363" stroke-width="2" stroke-linecap="round" stroke-linejoin="round"/>
<path id="Vector_6" d="M31.5967 10.5488L39.8467 18.7988" stroke="#636363" stroke-width="2" stroke-linecap="round" stroke-linejoin="round"/>
<path id="Vector_7" d="M39.8467 10.5488L31.5967 18.7988" stroke="#636363" stroke-width="2" stroke-linecap="round" stroke-linejoin="round"/>
</g>
</svg>
