<svg width="44" height="44" viewBox="0 0 44 44" fill="none" xmlns="http://www.w3.org/2000/svg">
<g id="Ear Hearing" clip-path="url(#clip0_188_26692)">
<g id="ear-hearing--health-medical-hearing-ear">
<path id="Vector 1115" d="M1.69775 10.0263C2.68389 7.20875 6.56402 1.57373 14.1954 1.57373C23.7347 1.57373 29.2095 9.68133 27.5383 17.2713C26.0893 23.8522 21.9838 26.1464 20.1726 27.7162C17.5266 30.0093 17.5274 31.8803 16.5677 34.9069C16.0126 36.6578 14.0838 39.1541 11.3971 39.4618C9.44992 39.6846 7.10472 38.7581 4.59577 35.565" stroke="#636363" stroke-width="2" stroke-linecap="round" stroke-linejoin="round"/>
<path id="Ellipse 343" d="M42.4283 30.7549C42.4283 37.2018 37.202 42.4284 30.7549 42.4284" stroke="#636363" stroke-width="2" stroke-linecap="round" stroke-linejoin="round"/>
<path id="Ellipse 345" d="M37.0326 30.5347C37.0326 34.0017 34.222 36.8123 30.7549 36.8123" stroke="#636363" stroke-width="2" stroke-linecap="round" stroke-linejoin="round"/>
<path id="Ellipse 344" d="M31.812 28.7891C31.812 30.4008 30.5053 31.7075 28.8936 31.7075" stroke="#636363" stroke-width="2" stroke-linecap="round" stroke-linejoin="round"/>
<path id="Vector 1116" d="M7.37308 14.1307C7.94442 12.7199 9.98244 9.96531 13.5639 10.2342C17.1455 10.503 20.2207 14.1307 18.9528 17.4967C17.6849 20.8628 16.0092 19.8207 14.485 22.0853C12.9608 24.3498 13.5301 28.8934 10.138 29.5718C8.02484 29.9944 6.91504 28.7818 6.91504 28.7818" stroke="#636363" stroke-width="2" stroke-linecap="round" stroke-linejoin="round"/>
</g>
</g>
<defs>
<clipPath id="clip0_188_26692">
<rect width="44" height="44" fill="white"/>
</clipPath>
</defs>
</svg>
