<svg width="80" height="80" viewBox="0 0 80 80" fill="none" xmlns="http://www.w3.org/2000/svg">
<g id="Group 1000002600">
<rect id="Rectangle 34626303" width="80" height="80" rx="4" fill="#FFF0F0"/>
<g id="Group 1000002363">
<path id="Ellipse 1133" d="M31.6666 41.8346C31.6666 45.3326 28.831 48.1682 25.3333 48.1682C21.8356 48.1682 19 45.3326 19 41.8346C19 38.3366 21.8356 35.501 25.3333 35.501C28.831 35.501 31.6666 38.3366 31.6666 41.8346Z" stroke="#636363" stroke-width="2"/>
<path id="Ellipse 1134" d="M61.0001 54.6666C61.0001 58.1647 58.1645 61.0003 54.6668 61.0003C51.1691 61.0003 48.3335 58.1647 48.3335 54.6666C48.3335 51.1686 51.1691 48.333 54.6668 48.333C58.1645 48.333 61.0001 51.1686 61.0001 54.6666Z" stroke="#636363" stroke-width="2"/>
<path id="Vector 42" d="M32.6665 41.8361H39.571V54.6699H47.3331" stroke="#636363" stroke-width="2" stroke-linecap="square" stroke-linejoin="round"/>
<rect id="Rectangle 11960" x="48.3335" y="19" width="12.6666" height="12.6673" stroke="#636363" stroke-width="2"/>
<path id="Vector 42_2" d="M32.6665 41.8327H39.571V25.332H47.3331" stroke="#636363" stroke-width="2" stroke-linecap="square" stroke-linejoin="round"/>
</g>
</g>
</svg>
