<svg width="44" height="44" viewBox="0 0 44 44" fill="none" xmlns="http://www.w3.org/2000/svg">
<g id="Information Desk Question Help" clip-path="url(#clip0_188_26648)">
<path id="Vector" d="M31.167 33.0008C30.4376 33.0008 29.7382 32.7111 29.2224 32.1953C28.7067 31.6796 28.417 30.9801 28.417 30.2508V21.0841C28.417 20.3548 28.7067 19.6553 29.2224 19.1396C29.7382 18.6239 30.4376 18.3341 31.167 18.3341C32.2548 18.3341 33.3182 18.0116 34.2226 17.4072C35.1271 16.8029 35.832 15.9439 36.2483 14.9389C36.6646 13.9339 36.7735 12.828 36.5613 11.7611C36.3491 10.6942 35.8253 9.71423 35.0561 8.94504C34.2869 8.17585 33.3069 7.65202 32.24 7.43981C31.1731 7.22759 30.0672 7.3365 29.0622 7.75279C28.0572 8.16907 27.1983 8.87402 26.5939 9.77849C25.9896 10.683 25.667 11.7463 25.667 12.8341C25.667 13.5635 25.3773 14.2629 24.8615 14.7787C24.3458 15.2944 23.6463 15.5841 22.917 15.5841C22.1876 15.5841 21.4882 15.2944 20.9724 14.7787C20.4567 14.2629 20.167 13.5635 20.167 12.8341C20.1675 10.7769 20.7449 8.76099 21.8337 7.01545C22.9224 5.26991 24.4789 3.86467 26.3262 2.95933C28.1735 2.05399 30.2377 1.68485 32.2843 1.89382C34.331 2.10279 36.278 2.8815 37.9042 4.14151C39.5304 5.40152 40.7707 7.09233 41.4842 9.02189C42.1977 10.9515 42.3558 13.0424 41.9406 15.0573C41.5253 17.0722 40.5533 18.9303 39.135 20.4205C37.7167 21.9107 35.9089 22.9733 33.917 23.4876V30.2508C33.917 30.9801 33.6273 31.6796 33.1115 32.1953C32.5958 32.7111 31.8963 33.0008 31.167 33.0008Z" stroke="#636363" stroke-width="2" stroke-linecap="round" stroke-linejoin="round"/>
<path id="Vector_2" d="M28.417 39.4238C28.417 40.1532 28.7067 40.8526 29.2224 41.3684C29.7382 41.8841 30.4376 42.1738 31.167 42.1738C31.8963 42.1738 32.5958 41.8841 33.1115 41.3684C33.6273 40.8526 33.917 40.1532 33.917 39.4238C33.917 38.6945 33.6273 37.995 33.1115 37.4793C32.5958 36.9636 31.8963 36.6738 31.167 36.6738C30.4376 36.6738 29.7382 36.9636 29.2224 37.4793C28.7067 37.995 28.417 38.6945 28.417 39.4238Z" stroke="#636363" stroke-width="2" stroke-linecap="round" stroke-linejoin="round"/>
<path id="Vector_3" d="M12.8335 11C13.5628 11 14.2623 11.2897 14.778 11.8055C15.2938 12.3212 15.5835 13.0207 15.5835 13.75V22.9167C15.5835 23.646 15.2938 24.3455 14.778 24.8612C14.2623 25.3769 13.5628 25.6667 12.8335 25.6667C11.7457 25.6667 10.6823 25.9892 9.77786 26.5936C8.87339 27.1979 8.16844 28.0569 7.75216 29.0619C7.33588 30.0669 7.22696 31.1728 7.43918 32.2397C7.6514 33.3066 8.17522 34.2866 8.94441 35.0558C9.7136 35.8249 10.6936 36.3488 11.7605 36.561C12.8274 36.7732 13.9333 36.6643 14.9383 36.248C15.9433 35.8317 16.8022 35.1268 17.4066 34.2223C18.0109 33.3178 18.3335 32.2545 18.3335 31.1667C18.3335 30.4373 18.6232 29.7378 19.139 29.2221C19.6547 28.7064 20.3542 28.4167 21.0835 28.4167C21.8128 28.4167 22.5123 28.7064 23.028 29.2221C23.5438 29.7378 23.8335 30.4373 23.8335 31.1667C23.833 33.2239 23.2555 35.2398 22.1668 36.9853C21.0781 38.7309 19.5216 40.1361 17.6743 41.0415C15.827 41.9468 13.7628 42.3159 11.7161 42.107C9.66953 41.898 7.72254 41.1193 6.0963 39.8593C4.47006 38.5993 3.22975 36.9085 2.51625 34.9789C1.80276 33.0493 1.64466 30.9584 2.05993 28.9435C2.4752 26.9286 3.44718 25.0705 4.86549 23.5803C6.28379 22.0901 8.09157 21.0275 10.0835 20.5132V13.75C10.0835 13.0207 10.3732 12.3212 10.889 11.8055C11.4047 11.2897 12.1042 11 12.8335 11Z" stroke="#636363" stroke-width="2" stroke-linecap="round" stroke-linejoin="round"/>
<path id="Vector_4" d="M10.083 4.57617C10.083 4.93731 10.1541 5.29491 10.2923 5.62855C10.4305 5.9622 10.6331 6.26535 10.8885 6.52072C11.1438 6.77608 11.447 6.97864 11.7806 7.11684C12.1143 7.25504 12.4719 7.32617 12.833 7.32617C13.1941 7.32617 13.5517 7.25504 13.8854 7.11684C14.219 6.97864 14.5222 6.77608 14.7776 6.52072C15.0329 6.26535 15.2355 5.9622 15.3737 5.62855C15.5119 5.29491 15.583 4.93731 15.583 4.57617C15.583 4.21504 15.5119 3.85744 15.3737 3.52379C15.2355 3.19015 15.0329 2.88699 14.7776 2.63163C14.5222 2.37627 14.219 2.1737 13.8854 2.0355C13.5517 1.8973 13.1941 1.82617 12.833 1.82617C12.4719 1.82617 12.1143 1.8973 11.7806 2.0355C11.447 2.1737 11.1438 2.37627 10.8885 2.63163C10.6331 2.88699 10.4305 3.19015 10.2923 3.52379C10.1541 3.85744 10.083 4.21504 10.083 4.57617Z" stroke="#636363" stroke-width="2" stroke-linecap="round" stroke-linejoin="round"/>
</g>
<defs>
<clipPath id="clip0_188_26648">
<rect width="44" height="44" fill="white"/>
</clipPath>
</defs>
</svg>
