<svg width="44" height="44" viewBox="0 0 44 44" fill="none" xmlns="http://www.w3.org/2000/svg">
<g id="Landscape 1">
<g id="landscape-1--photos-photo-landscape-picture-photography-camera-pictures-image">
<path id="Vector" d="M5.14286 42.8567H39.7143C41.4501 42.8567 42.8571 41.4496 42.8571 39.7138V5.14237C42.8571 3.40662 41.4501 1.99951 39.7143 1.99951H5.14286C3.4071 1.99951 2 3.40662 2 5.14237V39.7138C2 41.4496 3.4071 42.8567 5.14286 42.8567Z" stroke="#636363" stroke-width="2" stroke-linecap="round" stroke-linejoin="round"/>
<path id="Vector_2" d="M29.4683 20.8574C32.5059 20.8574 34.9683 18.395 34.9683 15.3574C34.9683 12.3199 32.5059 9.85742 29.4683 9.85742C26.4307 9.85742 23.9683 12.3199 23.9683 15.3574C23.9683 18.395 26.4307 20.8574 29.4683 20.8574Z" stroke="#636363" stroke-width="2" stroke-linecap="round" stroke-linejoin="round"/>
<path id="Vector_3" d="M29.9397 42.8567C28.9277 37.4667 26.0336 32.6117 21.7737 29.1576C17.5138 25.7037 12.1654 23.8756 6.68259 23.9996C5.11361 23.9954 3.54783 24.1403 2.00635 24.4323" stroke="#636363" stroke-width="2" stroke-linecap="round" stroke-linejoin="round"/>
<path id="Vector_4" d="M42.8257 31.5723C40.2944 30.7175 37.6403 30.2822 34.9685 30.2838C31.5866 30.2764 28.2389 30.9609 25.1313 32.2952" stroke="#636363" stroke-width="2" stroke-linecap="round" stroke-linejoin="round"/>
</g>
</g>
</svg>
