<svg width="44" height="44" viewBox="0 0 44 44" fill="none" xmlns="http://www.w3.org/2000/svg">
<g id="Module Four">
<path id="Vector" d="M41.25 13.75V33L22 41.25L2.75 33V13.75L22 22L41.25 13.75Z" stroke="#636363" stroke-width="2" stroke-linecap="round" stroke-linejoin="round"/>
<path id="Vector_2" d="M22 41.25V22" stroke="#636363" stroke-width="2" stroke-linecap="round" stroke-linejoin="round"/>
<path id="Vector_3" d="M13.75 9.03418L2.75 13.7477" stroke="#636363" stroke-width="2" stroke-linecap="round" stroke-linejoin="round"/>
<path id="Vector_4" d="M30.25 9.03418L41.25 13.7477" stroke="#636363" stroke-width="2" stroke-linecap="round" stroke-linejoin="round"/>
<path id="Vector_5" d="M22 8.25C26.5563 8.25 30.25 7.01878 30.25 5.5C30.25 3.98122 26.5563 2.75 22 2.75C17.4437 2.75 13.75 3.98122 13.75 5.5C13.75 7.01878 17.4437 8.25 22 8.25Z" stroke="#636363" stroke-width="2" stroke-linecap="round" stroke-linejoin="round"/>
<path id="Vector_6" d="M13.75 5.5V11C13.75 12.518 17.4442 13.75 22 13.75C26.5558 13.75 30.25 12.518 30.25 11V5.5" stroke="#636363" stroke-width="2" stroke-linecap="round" stroke-linejoin="round"/>
</g>
</svg>
