<svg width="44" height="44" viewBox="0 0 44 44" fill="none" xmlns="http://www.w3.org/2000/svg">
<g id="Music Note 2" clip-path="url(#clip0_188_26516)">
<g id="music-note-2--music-audio-note-entertainment">
<path id="Vector" d="M7.857 42.177C11.3285 42.177 14.1427 39.3628 14.1427 35.8912C14.1427 32.4196 11.3285 29.6055 7.857 29.6055C4.3855 29.6055 1.57129 32.4196 1.57129 35.8912C1.57129 39.3628 4.3855 42.177 7.857 42.177Z" stroke="#636363" stroke-width="2" stroke-linecap="round" stroke-linejoin="round"/>
<path id="Vector_2" d="M36.1426 34.3191C39.6142 34.3191 42.4284 31.5049 42.4284 28.0333C42.4284 24.5618 39.6142 21.7476 36.1426 21.7476C32.671 21.7476 29.8569 24.5618 29.8569 28.0333C29.8569 31.5049 32.671 34.3191 36.1426 34.3191Z" stroke="#636363" stroke-width="2" stroke-linecap="round" stroke-linejoin="round"/>
<path id="Vector_3" d="M42.4283 28.0342V3.39416C42.427 3.1537 42.3705 2.91677 42.263 2.70159C42.1558 2.48641 42.0006 2.29874 41.8092 2.15301C41.6181 2.00728 41.3959 1.90739 41.1598 1.86103C40.9238 1.81467 40.6806 1.82307 40.4483 1.88559L15.3054 8.86273C14.9732 8.9522 14.6795 9.14823 14.4694 9.42074C14.2593 9.69329 14.1445 10.0272 14.1426 10.3713V35.8912" stroke="#636363" stroke-width="2" stroke-linecap="round" stroke-linejoin="round"/>
<path id="Vector_4" d="M14.1431 18.6047L42.4288 10.7476" stroke="#636363" stroke-width="2" stroke-linecap="round" stroke-linejoin="round"/>
</g>
</g>
<defs>
<clipPath id="clip0_188_26516">
<rect width="44" height="44" fill="white"/>
</clipPath>
</defs>
</svg>
