<svg width="44" height="44" viewBox="0 0 44 44" fill="none" xmlns="http://www.w3.org/2000/svg">
<g id="Play List 1" clip-path="url(#clip0_188_26496)">
<g id="play-list-1--screen-television-display-player-movies-movie-tv-media-players-video-entertainment">
<path id="Vector" d="M39.2861 1.57373H4.71463C2.97888 1.57373 1.57178 2.98083 1.57178 4.71659V39.288C1.57178 41.0238 2.97888 42.4309 4.71463 42.4309H39.2861C41.0219 42.4309 42.4289 41.0238 42.4289 39.288V4.71659C42.4289 2.98083 41.0219 1.57373 39.2861 1.57373Z" stroke="#636363" stroke-width="2" stroke-linecap="round" stroke-linejoin="round"/>
<path id="Vector_2" d="M17.2549 33.1921V21.1549C17.2637 20.9699 17.3177 20.7899 17.4123 20.6307C17.5069 20.4715 17.6391 20.3379 17.7974 20.2417C17.9556 20.1456 18.135 20.0897 18.3199 20.079C18.5048 20.0684 18.6895 20.1033 18.8577 20.1806L29.292 26.1835C29.461 26.2876 29.6005 26.4332 29.6973 26.6065C29.7941 26.7798 29.8449 26.975 29.8449 27.1735C29.8449 27.372 29.7941 27.5671 29.6973 27.7404C29.6005 27.9137 29.461 28.0593 29.292 28.1635L18.8577 34.1978C18.6866 34.2682 18.5011 34.2965 18.3167 34.2807C18.1323 34.265 17.9544 34.2056 17.7976 34.1073C17.6408 34.0089 17.5098 33.8744 17.4154 33.7153C17.321 33.5563 17.266 33.3769 17.2549 33.1921Z" stroke="#636363" stroke-width="2" stroke-linecap="round" stroke-linejoin="round"/>
<path id="Vector_3" d="M1.57178 12.5737H42.4289" stroke="#636363" stroke-width="2" stroke-linecap="round" stroke-linejoin="round"/>
<path id="Vector_4" d="M12.5718 12.5737L17.2861 1.57373" stroke="#636363" stroke-width="2" stroke-linecap="round" stroke-linejoin="round"/>
<path id="Vector_5" d="M26.7148 12.5737L31.4291 1.57373" stroke="#636363" stroke-width="2" stroke-linecap="round" stroke-linejoin="round"/>
</g>
</g>
<defs>
<clipPath id="clip0_188_26496">
<rect width="44" height="44" fill="white"/>
</clipPath>
</defs>
</svg>
