<svg width="44" height="44" viewBox="0 0 44 44" fill="none" xmlns="http://www.w3.org/2000/svg">
<g id="Responsive Design Hand" clip-path="url(#clip0_188_26597)">
<g id="Group">
<g id="Group_2">
<path id="Vector" d="M40.3337 43.0947L41.2504 37.5947C41.3015 37.2122 41.2226 36.8235 41.0265 36.4911C40.8303 36.1587 40.5283 35.9017 40.1687 35.7614L32.0654 32.2047V24.3031C32.0938 23.9861 32.056 23.6668 31.9542 23.3653C31.8524 23.0638 31.6889 22.7868 31.4742 22.5519C31.2595 22.3171 30.9982 22.1295 30.707 22.0012C30.4158 21.8729 30.1011 21.8066 29.7829 21.8066C29.4647 21.8066 29.15 21.8729 28.8588 22.0012C28.5676 22.1295 28.3063 22.3171 28.0916 22.5519C27.8769 22.7868 27.7134 23.0638 27.6116 23.3653C27.5099 23.6668 27.472 23.9861 27.5004 24.3031V38.8597L24.3471 35.0831C24.1593 34.857 23.9199 34.6794 23.6491 34.5652C23.3783 34.451 23.084 34.4036 22.7911 34.427C22.4981 34.4504 22.2151 34.5438 21.9658 34.6995C21.7165 34.8551 21.5083 35.0684 21.3587 35.3214C21.1862 35.596 21.0947 35.9138 21.0947 36.2381C21.0947 36.5624 21.1862 36.8801 21.3587 37.1547L24.6587 43.1681" stroke="#636363" stroke-width="2" stroke-linecap="round" stroke-linejoin="round"/>
<path id="Vector_2" d="M8.25033 32.0905H3.66699C2.93765 32.0905 2.23817 31.8008 1.72245 31.285C1.20672 30.7693 0.916992 30.0698 0.916992 29.3405V3.67383C0.916992 2.94448 1.20672 2.24501 1.72245 1.72928C2.23817 1.21356 2.93765 0.923828 3.66699 0.923828H20.167C20.8963 0.923828 21.5958 1.21356 22.1115 1.72928C22.6273 2.24501 22.917 2.94448 22.917 3.67383V11.9238" stroke="#636363" stroke-width="2" stroke-linecap="round" stroke-linejoin="round"/>
<path id="Vector_3" d="M0.916992 26.5977H8.25033" stroke="#636363" stroke-width="2" stroke-linecap="round" stroke-linejoin="round"/>
<path id="Vector_4" d="M17.417 17.4238V33.0072" stroke="#636363" stroke-width="2" stroke-linecap="round" stroke-linejoin="round"/>
<path id="Vector_5" d="M33.9168 0.923828H28.4168C27.4043 0.923828 26.5835 1.74464 26.5835 2.75716V15.5905C26.5835 16.603 27.4043 17.4238 28.4168 17.4238H33.9168C34.9294 17.4238 35.7502 16.603 35.7502 15.5905V2.75716C35.7502 1.74464 34.9294 0.923828 33.9168 0.923828Z" stroke="#636363" stroke-width="2" stroke-linecap="round" stroke-linejoin="round"/>
<path id="Vector_6" d="M26.584 13.75H35.7507" stroke="#636363" stroke-width="2" stroke-linecap="round" stroke-linejoin="round"/>
<path id="Vector_7" d="M0.916992 6.42383H22.917" stroke="#636363" stroke-width="2" stroke-linecap="round" stroke-linejoin="round"/>
<path id="Vector_8" d="M37.584 22V30.25" stroke="#636363" stroke-width="2" stroke-linecap="round" stroke-linejoin="round"/>
</g>
<path id="Vector_9" d="M39.417 17.4238H40.3337C41.063 17.4238 41.7625 17.7136 42.2782 18.2293C42.7939 18.745 43.0837 19.4445 43.0837 20.1738V32.0905" stroke="#636363" stroke-width="2" stroke-linecap="round" stroke-linejoin="round"/>
<path id="Vector_10" d="M22.917 17.4238H14.667C13.9376 17.4238 13.2382 17.7136 12.7224 18.2293C12.2067 18.745 11.917 19.4445 11.917 20.1738V34.8405C11.917 35.5698 12.2067 36.2693 12.7224 36.785C13.2382 37.3008 13.9376 37.5905 14.667 37.5905H17.417" stroke="#636363" stroke-width="2" stroke-linecap="round" stroke-linejoin="round"/>
</g>
</g>
<defs>
<clipPath id="clip0_188_26597">
<rect width="44" height="44" fill="white"/>
</clipPath>
</defs>
</svg>
