<svg width="46" height="46" viewBox="0 0 46 46" fill="none" xmlns="http://www.w3.org/2000/svg">
<g id="Server Download 1">
<path id="Vector" d="M33.083 44.0762C39.1581 44.0762 44.083 39.1513 44.083 33.0762C44.083 27.0011 39.1581 22.0762 33.083 22.0762C27.0079 22.0762 22.083 27.0011 22.083 33.0762C22.083 39.1513 27.0079 44.0762 33.083 44.0762Z" stroke="#636363" stroke-width="2" stroke-linecap="round" stroke-linejoin="round"/>
<path id="Vector_2" d="M33.083 27.5762V38.5762" stroke="#636363" stroke-width="2" stroke-linecap="round" stroke-linejoin="round"/>
<path id="Vector_3" d="M33.083 38.5762L28.958 34.4512" stroke="#636363" stroke-width="2" stroke-linecap="round" stroke-linejoin="round"/>
<path id="Vector_4" d="M33.083 38.5762L37.208 34.4512" stroke="#636363" stroke-width="2" stroke-linecap="round" stroke-linejoin="round"/>
<path id="Vector_5" d="M11.083 38.5762H16.583" stroke="#636363" stroke-width="2" stroke-linecap="round" stroke-linejoin="round"/>
<path id="Vector_6" d="M16.5854 29.4238V38.5905" stroke="#636363" stroke-width="2" stroke-linecap="round" stroke-linejoin="round"/>
<path id="Vector_7" d="M23.9165 20.25H6.49984C5.28426 20.25 4.11847 20.7329 3.25893 21.5924C2.39939 22.452 1.9165 23.6178 1.9165 24.8333C1.9165 26.0488 2.39939 27.2147 3.25893 28.0743C4.11847 28.9338 5.28426 29.4167 6.49984 29.4167H18.4165" stroke="#636363" stroke-width="2" stroke-linecap="round" stroke-linejoin="round"/>
<path id="Vector_8" d="M33.0837 15.6595C33.0837 14.4439 32.6008 13.2781 31.7413 12.4186C30.8816 11.5591 29.7158 11.0762 28.5003 11.0762H6.50033C5.28475 11.0762 4.11895 11.5591 3.25941 12.4186C2.39988 13.2781 1.91699 14.4439 1.91699 15.6595C1.91699 16.8751 2.39988 18.0409 3.25941 18.9004C4.11895 19.7599 5.28475 20.2428 6.50033 20.2428H23.917" stroke="#636363" stroke-width="2" stroke-linecap="round" stroke-linejoin="round"/>
<path id="Vector_9" d="M33.0837 6.50716C33.0837 5.90528 32.965 5.30928 32.7348 4.75319C32.5045 4.19712 32.1668 3.69186 31.7413 3.26625C31.3156 2.84066 30.8103 2.50305 30.2543 2.27271C29.6982 2.04238 29.1022 1.92383 28.5003 1.92383H6.50033C5.28475 1.92383 4.11895 2.40671 3.25941 3.26625C2.39988 4.12579 1.91699 5.29159 1.91699 6.50716C1.91699 7.72273 2.39988 8.88853 3.25941 9.74807C4.11895 10.6076 5.28475 11.0905 6.50033 11.0905H28.5003C29.7158 11.0905 30.8816 10.6076 31.7413 9.74807C32.6008 8.88853 33.0837 7.72273 33.0837 6.50716Z" stroke="#636363" stroke-width="2" stroke-linecap="round" stroke-linejoin="round"/>
<path id="Vector_10" d="M2.37533 38.5905C2.1222 38.5905 1.91699 38.3853 1.91699 38.1322C1.91699 37.879 2.1222 37.6738 2.37533 37.6738" stroke="#636363" stroke-width="2"/>
<path id="Vector_11" d="M2.375 38.5905C2.62813 38.5905 2.83333 38.3853 2.83333 38.1322C2.83333 37.879 2.62813 37.6738 2.375 37.6738" stroke="#636363" stroke-width="2"/>
<path id="Vector_12" d="M6.95833 38.5905C6.70521 38.5905 6.5 38.3853 6.5 38.1322C6.5 37.879 6.70521 37.6738 6.95833 37.6738" stroke="#636363" stroke-width="2"/>
<path id="Vector_13" d="M6.95801 38.5905C7.21114 38.5905 7.41634 38.3853 7.41634 38.1322C7.41634 37.879 7.21114 37.6738 6.95801 37.6738" stroke="#636363" stroke-width="2"/>
<path id="Vector_14" d="M8.79134 6.96549C8.53821 6.96549 8.33301 6.76029 8.33301 6.50716C8.33301 6.25403 8.53821 6.04883 8.79134 6.04883" stroke="#636363" stroke-width="2"/>
<path id="Vector_15" d="M8.79199 6.96549C9.04512 6.96549 9.25033 6.76029 9.25033 6.50716C9.25033 6.25403 9.04512 6.04883 8.79199 6.04883" stroke="#636363" stroke-width="2"/>
<path id="Vector_16" d="M13.3753 6.96549C13.1222 6.96549 12.917 6.76029 12.917 6.50716C12.917 6.25403 13.1222 6.04883 13.3753 6.04883" stroke="#636363" stroke-width="2"/>
<path id="Vector_17" d="M13.375 6.96549C13.6281 6.96549 13.8333 6.76029 13.8333 6.50716C13.8333 6.25403 13.6281 6.04883 13.375 6.04883" stroke="#636363" stroke-width="2"/>
<g id="Group">
<path id="Vector_18" d="M8.79134 16.1178C8.53821 16.1178 8.33301 15.9126 8.33301 15.6595C8.33301 15.4064 8.53821 15.2012 8.79134 15.2012" stroke="#636363" stroke-width="2"/>
<path id="Vector_19" d="M8.7915 16.1178C9.04463 16.1178 9.24984 15.9126 9.24984 15.6595C9.24984 15.4064 9.04463 15.2012 8.7915 15.2012" stroke="#636363" stroke-width="2"/>
</g>
<g id="Group_2">
<path id="Vector_20" d="M8.79183 25.2917C8.5387 25.2917 8.3335 25.0865 8.3335 24.8333C8.3335 24.5802 8.5387 24.375 8.79183 24.375" stroke="#636363" stroke-width="2"/>
<path id="Vector_21" d="M8.79199 25.2917C9.04512 25.2917 9.25033 25.0865 9.25033 24.8333C9.25033 24.5802 9.04512 24.375 8.79199 24.375" stroke="#636363" stroke-width="2"/>
</g>
<g id="Group_3">
<path id="Vector_22" d="M13.3753 16.1178C13.1222 16.1178 12.917 15.9126 12.917 15.6595C12.917 15.4064 13.1222 15.2012 13.3753 15.2012" stroke="#636363" stroke-width="2"/>
<path id="Vector_23" d="M13.3755 16.1178C13.6286 16.1178 13.8338 15.9126 13.8338 15.6595C13.8338 15.4064 13.6286 15.2012 13.3755 15.2012" stroke="#636363" stroke-width="2"/>
</g>
<g id="Group_4">
<path id="Vector_24" d="M13.3748 25.2917C13.1217 25.2917 12.9165 25.0865 12.9165 24.8333C12.9165 24.5802 13.1217 24.375 13.3748 24.375" stroke="#636363" stroke-width="2"/>
<path id="Vector_25" d="M13.375 25.2917C13.6281 25.2917 13.8333 25.0865 13.8333 24.8333C13.8333 24.5802 13.6281 24.375 13.375 24.375" stroke="#636363" stroke-width="2"/>
</g>
</g>
</svg>
