<svg width="44" height="45" viewBox="0 0 44 45" fill="none" xmlns="http://www.w3.org/2000/svg">
<g id="User Experience Design" clip-path="url(#clip0_188_26527)">
<g id="user-experience-design">
<path id="Ellipse 320" d="M12.2183 40.1509C15.0857 41.9615 18.483 43.0093 22.125 43.0093C25.767 43.0093 29.1643 41.9615 32.0316 40.1509" stroke="#636363" stroke-width="2" stroke-linecap="round" stroke-linejoin="round"/>
<path id="Ellipse 324" d="M3.54053 24.4278C3.54053 17.2594 7.59994 11.0391 13.5453 7.94043" stroke="#636363" stroke-width="2" stroke-linecap="round" stroke-linejoin="round"/>
<path id="Ellipse 323" d="M40.7056 24.4278C40.7056 17.2594 36.646 11.0391 30.7007 7.94043" stroke="#636363" stroke-width="2" stroke-linecap="round" stroke-linejoin="round"/>
<path id="Rectangle 54" d="M18.3672 2.41895H25.8849V9.93666H18.3672V2.41895Z" stroke="#636363" stroke-width="2" stroke-linecap="round" stroke-linejoin="round"/>
<path id="Ellipse 167" d="M38.4752 36.7653C40.5511 36.7653 42.234 35.0824 42.234 33.0064C42.234 30.9305 40.5511 29.2476 38.4752 29.2476C36.3992 29.2476 34.7163 30.9305 34.7163 33.0064C34.7163 35.0824 36.3992 36.7653 38.4752 36.7653Z" stroke="#636363" stroke-width="2" stroke-linecap="round" stroke-linejoin="round"/>
<path id="Vector 1152" d="M1.7666 35.7491L6.55763 28.2808L11.3487 35.7491H1.7666Z" stroke="#636363" stroke-width="2" stroke-linecap="round" stroke-linejoin="round"/>
<path id="Vector" d="M17.5679 20.7382C17.5679 23.2528 19.6064 25.2913 22.121 25.2913C22.7567 25.2913 23.3619 25.161 23.9116 24.9257C25.536 24.2302 26.6741 22.6171 26.6741 20.7382C26.6741 18.2235 24.6356 16.1851 22.121 16.1851C19.6064 16.1851 17.5679 18.2235 17.5679 20.7382Z" stroke="#636363" stroke-width="2" stroke-linecap="round" stroke-linejoin="round"/>
<path id="Vector_2" d="M15.2017 29.7953C15.9251 28.4192 16.942 27.2819 18.1544 26.4927C19.3668 25.7036 20.734 25.2891 22.1246 25.2891C23.5151 25.2891 24.8824 25.7036 26.0948 26.4927C27.3072 27.2819 28.324 28.4192 29.0475 29.7953" stroke="#636363" stroke-width="2" stroke-linecap="round" stroke-linejoin="round"/>
</g>
</g>
<defs>
<clipPath id="clip0_188_26527">
<rect width="44" height="44" fill="white" transform="translate(0 0.710938)"/>
</clipPath>
</defs>
</svg>
