<svg width="24" height="24" viewBox="0 0 24 24" fill="none" xmlns="http://www.w3.org/2000/svg">
<g id="Amazon Web Service Cluster" clip-path="url(#clip0_188_19746)">
<path id="Vector" d="M8.75 15.0502C8.75 15.6502 8.35 16.0502 7.75 16.0502H1.75C1.15 16.0502 0.75 15.6502 0.75 15.0502V9.05029C0.75 8.45029 1.15 8.05029 1.75 8.05029H7.75C8.35 8.05029 8.75 8.45029 8.75 9.05029V15.0502Z" stroke="#2C2C2C" stroke-width="1.6" stroke-miterlimit="10" stroke-linecap="round" stroke-linejoin="round"/>
<path id="Vector_2" d="M17.25 3.75C17.25 4.35 16.85 4.75 16.25 4.75H14.25C13.65 4.75 13.25 4.35 13.25 3.75V1.75C13.25 1.15 13.65 0.75 14.25 0.75H16.25C16.85 0.75 17.25 1.15 17.25 1.75V3.75Z" stroke="#2C2C2C" stroke-width="1.6" stroke-miterlimit="10" stroke-linecap="round" stroke-linejoin="round"/>
<path id="Vector_3" d="M23.25 9.55029C23.25 10.1502 22.85 10.5502 22.25 10.5502H20.25C19.65 10.5502 19.25 10.1502 19.25 9.55029V7.55029C19.25 6.95029 19.65 6.55029 20.25 6.55029H22.25C22.85 6.55029 23.25 6.95029 23.25 7.55029V9.55029Z" stroke="#2C2C2C" stroke-width="1.6" stroke-miterlimit="10" stroke-linecap="round" stroke-linejoin="round"/>
<path id="Vector_4" d="M23.25 16.5498C23.25 17.1498 22.85 17.5498 22.25 17.5498H20.25C19.65 17.5498 19.25 17.1498 19.25 16.5498V14.5498C19.25 13.9498 19.65 13.5498 20.25 13.5498H22.25C22.85 13.5498 23.25 13.9498 23.25 14.5498V16.5498Z" stroke="#2C2C2C" stroke-width="1.6" stroke-miterlimit="10" stroke-linecap="round" stroke-linejoin="round"/>
<path id="Vector_5" d="M17.25 22.25C17.25 22.85 16.85 23.25 16.25 23.25H14.25C13.65 23.25 13.25 22.85 13.25 22.25V20.25C13.25 19.65 13.65 19.25 14.25 19.25H16.25C16.85 19.25 17.25 19.65 17.25 20.25V22.25Z" stroke="#2C2C2C" stroke-width="1.6" stroke-miterlimit="10" stroke-linecap="round" stroke-linejoin="round"/>
<path id="Vector_6" d="M19.25 8.55005L8.75 12.05L13.5703 4.51562" stroke="#2C2C2C" stroke-width="1.6" stroke-miterlimit="10" stroke-linecap="round" stroke-linejoin="round"/>
<path id="Vector_7" d="M19.25 15.5498L8.75 12.0498L13.5312 19.5193" stroke="#2C2C2C" stroke-width="1.6" stroke-miterlimit="10" stroke-linecap="round" stroke-linejoin="round"/>
<path id="Vector_8" d="M17.0659 4.36572L19.5268 6.82664" stroke="#2C2C2C" stroke-width="1.6" stroke-miterlimit="10" stroke-linecap="round" stroke-linejoin="round"/>
<path id="Vector_9" d="M21.25 10.5498V13.5498" stroke="#2C2C2C" stroke-width="1.6" stroke-miterlimit="10" stroke-linecap="round" stroke-linejoin="round"/>
<path id="Vector_10" d="M17.0205 19.5785L19.4795 17.2178" stroke="#2C2C2C" stroke-width="1.6" stroke-miterlimit="10" stroke-linecap="round" stroke-linejoin="round"/>
</g>
<defs>
<clipPath id="clip0_188_19746">
<rect width="24" height="24" fill="white"/>
</clipPath>
</defs>
</svg>
