<svg width="24" height="24" viewBox="0 0 24 24" fill="none" xmlns="http://www.w3.org/2000/svg">
<g id="Book 2" clip-path="url(#clip0_188_19759)">
<g id="book-2--library-content-books-book-shelf-stack">
<path id="Vector" d="M6.08573 0.857178H1.80002C1.32663 0.857178 0.942871 1.24093 0.942871 1.71432V22.2857C0.942871 22.7591 1.32663 23.1429 1.80002 23.1429H6.08573C6.55911 23.1429 6.94287 22.7591 6.94287 22.2857V1.71432C6.94287 1.24093 6.55911 0.857178 6.08573 0.857178Z" stroke="#2C2C2C" stroke-width="1.6" stroke-linecap="round" stroke-linejoin="round"/>
<path id="Vector_2" d="M12.0857 4.28564H7.80001C7.32663 4.28564 6.94287 4.6694 6.94287 5.14279V22.2856C6.94287 22.759 7.32663 23.1428 7.80001 23.1428H12.0857C12.5591 23.1428 12.9429 22.759 12.9429 22.2856V5.14279C12.9429 4.6694 12.5591 4.28564 12.0857 4.28564Z" stroke="#2C2C2C" stroke-width="1.6" stroke-linecap="round" stroke-linejoin="round"/>
<path id="Vector_3" d="M17.8227 3.81662L14.4967 4.64897C14.0375 4.7639 13.7583 5.22933 13.8733 5.68855L18.0349 22.3185C18.15 22.7778 18.6154 23.0569 19.0746 22.942L22.4005 22.1097C22.8598 21.9947 23.1389 21.5293 23.024 21.07L18.8622 4.44003C18.7474 3.98081 18.282 3.70169 17.8227 3.81662Z" stroke="#2C2C2C" stroke-width="1.6" stroke-linecap="round" stroke-linejoin="round"/>
<path id="Vector_4" d="M0.942871 17.1428H6.94287" stroke="#2C2C2C" stroke-width="1.6" stroke-linecap="round" stroke-linejoin="round"/>
<path id="Vector_5" d="M17.2285 18.8571L22.1657 17.6228" stroke="#2C2C2C" stroke-width="1.6" stroke-linecap="round" stroke-linejoin="round"/>
</g>
</g>
<defs>
<clipPath id="clip0_188_19759">
<rect width="24" height="24" fill="white"/>
</clipPath>
</defs>
</svg>
