<svg width="24" height="24" viewBox="0 0 24 24" fill="none" xmlns="http://www.w3.org/2000/svg">
<g id="Interface User Collaborate" clip-path="url(#clip0_188_19692)">
<path id="Vector" d="M4.836 5.63318C6.15485 5.63318 7.224 4.56403 7.224 3.24518C7.224 1.92632 6.15485 0.857178 4.836 0.857178C3.51714 0.857178 2.448 1.92632 2.448 3.24518C2.448 4.56403 3.51714 5.63318 4.836 5.63318Z" stroke="#2C2C2C" stroke-width="1.71429" stroke-linejoin="round"/>
<path id="Vector_2" d="M8.81637 12.0001C8.81637 9.80223 7.03464 8.02051 4.83677 8.02051C2.6389 8.02051 0.857178 9.80223 0.857178 12.0001" stroke="#2C2C2C" stroke-width="1.71429" stroke-linecap="round" stroke-linejoin="round"/>
<path id="Vector_3" d="M19.1639 16.776C20.4827 16.776 21.5519 15.7069 21.5519 14.388C21.5519 13.0691 20.4827 12 19.1639 12C17.845 12 16.7759 13.0691 16.7759 14.388C16.7759 15.7069 17.845 16.776 19.1639 16.776Z" stroke="#2C2C2C" stroke-width="1.71429" stroke-linejoin="round"/>
<path id="Vector_4" d="M23.1428 23.1429C23.1428 20.945 21.3611 19.1633 19.1632 19.1633C16.9653 19.1633 15.1836 20.945 15.1836 23.1429" stroke="#2C2C2C" stroke-width="1.71429" stroke-linecap="round" stroke-linejoin="round"/>
<path id="Vector_5" d="M19.1633 7.22447V6.42856C19.1633 4.67025 17.7378 3.24487 15.9796 3.24487H13.5918" stroke="#2C2C2C" stroke-width="1.71429" stroke-linecap="round" stroke-linejoin="round"/>
<path id="Vector_6" d="M4.83667 16.7756V17.5715C4.83667 19.3299 6.26205 20.7553 8.02034 20.7553H10.4081" stroke="#2C2C2C" stroke-width="1.71429" stroke-linecap="round" stroke-linejoin="round"/>
</g>
<defs>
<clipPath id="clip0_188_19692">
<rect width="24" height="24" fill="white"/>
</clipPath>
</defs>
</svg>
