<svg width="24" height="24" viewBox="0 0 24 24" fill="none" xmlns="http://www.w3.org/2000/svg">
<g id="Interface Content Save" clip-path="url(#clip0_188_19708)">
<g id="Group">
<path id="Vector" d="M23.1431 21.4284C23.1431 21.883 22.9625 22.3191 22.641 22.6405C22.3195 22.962 21.8835 23.1426 21.4289 23.1426H2.57171C2.11705 23.1426 1.68102 22.962 1.35952 22.6405C1.03803 22.3191 0.857422 21.883 0.857422 21.4284V5.99979L6.00028 0.856934H21.4289C21.8835 0.856934 22.3195 1.03755 22.641 1.35904C22.9625 1.68053 23.1431 2.11656 23.1431 2.57122V21.4284Z" stroke="black" stroke-width="1.6" stroke-linecap="round" stroke-linejoin="round"/>
<path id="Vector_2" d="M18 14.5713H6V23.1427H18V14.5713Z" stroke="black" stroke-width="1.6" stroke-linecap="round" stroke-linejoin="round"/>
<path id="Vector_3" d="M18.0006 0.856934H7.71484V7.71408H18.0006V0.856934Z" stroke="black" stroke-width="1.6" stroke-linecap="round" stroke-linejoin="round"/>
</g>
</g>
<defs>
<clipPath id="clip0_188_19708">
<rect width="24" height="24" fill="white"/>
</clipPath>
</defs>
</svg>
