<svg width="25" height="24" viewBox="0 0 25 24" fill="none" xmlns="http://www.w3.org/2000/svg">
<g id="Interface Align Layers 1" clip-path="url(#clip0_188_19730)">
<g id="Group">
<path id="Vector" d="M12.9318 11.8287C12.675 11.9391 12.398 11.9961 12.1181 11.9961C11.8381 11.9961 11.5612 11.9391 11.3044 11.8287L1.43645 7.303C1.27621 7.22297 1.14155 7.10046 1.04747 6.94913C0.953381 6.79779 0.903564 6.62357 0.903564 6.44586C0.903564 6.26814 0.953381 6.09392 1.04747 5.94258C1.14155 5.79125 1.27621 5.66874 1.43645 5.58871L11.3044 1.02871C11.5612 0.918302 11.8381 0.861328 12.1181 0.861328C12.398 0.861328 12.675 0.918302 12.9318 1.02871L22.7997 5.55443C22.96 5.63446 23.0946 5.75696 23.1887 5.9083C23.2828 6.05963 23.3326 6.23386 23.3326 6.41157C23.3326 6.58928 23.2828 6.76351 23.1887 6.91484C23.0946 7.06618 22.96 7.18868 22.7997 7.26871L12.9318 11.8287Z" stroke="#2C2C2C" stroke-width="1.6" stroke-linecap="round" stroke-linejoin="round"/>
<path id="Vector_2" d="M23.3711 12.6006L12.8107 17.4177C12.5851 17.5196 12.3401 17.5723 12.0922 17.5723C11.8443 17.5723 11.5993 17.5196 11.3738 17.4177L0.865234 12.6006" stroke="#2C2C2C" stroke-width="1.6" stroke-linecap="round" stroke-linejoin="round"/>
<path id="Vector_3" d="M23.3711 18.1719L12.8107 22.989C12.5851 23.0909 12.3401 23.1436 12.0922 23.1436C11.8443 23.1436 11.5993 23.0909 11.3738 22.989L0.865234 18.1719" stroke="#2C2C2C" stroke-width="1.6" stroke-linecap="round" stroke-linejoin="round"/>
</g>
</g>
<defs>
<clipPath id="clip0_188_19730">
<rect width="24.2371" height="24" fill="white"/>
</clipPath>
</defs>
</svg>
