<svg width="24" height="24" viewBox="0 0 24 24" fill="none" xmlns="http://www.w3.org/2000/svg">
<g id="New Filter Slide" clip-path="url(#clip0_188_19716)">
<g id="new-filter-slide">
<path id="vector" d="M4.60107 0.931641V11.8204" stroke="#2C2C2C" stroke-width="1.6" stroke-linecap="round" stroke-linejoin="round"/>
<path id="vector_2" d="M20.687 14.1382C21.8692 14.1382 22.8276 15.0966 22.8276 16.2788C22.8276 17.461 21.8692 18.4193 20.687 18.4193C19.5048 18.4193 18.5464 17.461 18.5464 16.2788C18.5464 15.0966 19.5048 14.1382 20.687 14.1382Z" stroke="#2C2C2C" stroke-width="1.6" stroke-linecap="round" stroke-linejoin="round"/>
<path id="vector_3" d="M20.686 18.4194V23.0684" stroke="#2C2C2C" stroke-width="1.6" stroke-linecap="round" stroke-linejoin="round"/>
<path id="vector_4" d="M20.6892 0.933594V14.1389" stroke="#2C2C2C" stroke-width="1.6" stroke-linecap="round" stroke-linejoin="round"/>
<path id="vector_5" d="M12.643 14.0204C13.8253 14.0204 14.7836 13.0621 14.7836 11.8799C14.7836 10.6976 13.8253 9.73926 12.643 9.73926C11.4608 9.73926 10.5024 10.6976 10.5024 11.8799C10.5024 13.0621 11.4608 14.0204 12.643 14.0204Z" stroke="#2C2C2C" stroke-width="1.6" stroke-linecap="round" stroke-linejoin="round"/>
<path id="vector_6" d="M12.6436 0.933105V9.7389" stroke="#2C2C2C" stroke-width="1.6" stroke-linecap="round" stroke-linejoin="round"/>
<path id="vector_7" d="M12.6504 14.02V23.0685" stroke="#2C2C2C" stroke-width="1.6" stroke-linecap="round" stroke-linejoin="round"/>
<g id="group 54">
<path id="vector_8" d="M4.60107 16.2114V23.0685" stroke="#2C2C2C" stroke-width="1.6" stroke-linecap="round" stroke-linejoin="round"/>
<path id="vector_9" d="M1.17261 19.6401H8.02975" stroke="#2C2C2C" stroke-width="1.6" stroke-linecap="round" stroke-linejoin="round"/>
</g>
</g>
</g>
<defs>
<clipPath id="clip0_188_19716">
<rect width="24" height="24" fill="white"/>
</clipPath>
</defs>
</svg>
