<svg width="25" height="22" viewBox="0 0 25 22" fill="none" xmlns="http://www.w3.org/2000/svg">
<g id="wallet--money-payment-finance-wallet">
<path id="Vector" d="M20.7143 15.5714V19C20.7143 19.4546 20.5336 19.8907 20.2122 20.2122C19.8907 20.5336 19.4546 20.7143 19 20.7143H2.71429C2.25962 20.7143 1.82359 20.5336 1.5021 20.2122C1.18061 19.8907 1 19.4546 1 19V6.14286C1 3.30254 3.30254 1 6.14286 1H17.2857V5.28571" stroke="black" stroke-width="1.6" stroke-linecap="round" stroke-linejoin="round"/>
<path id="Vector_2" d="M22.4287 10.4285H16.4287C15.9553 10.4285 15.5715 10.8122 15.5715 11.2856V14.7142C15.5715 15.1875 15.9553 15.5713 16.4287 15.5713H22.4287C22.902 15.5713 23.2858 15.1875 23.2858 14.7142V11.2856C23.2858 10.8122 22.902 10.4285 22.4287 10.4285Z" stroke="black" stroke-width="1.6" stroke-linecap="round" stroke-linejoin="round"/>
<path id="Vector_3" d="M20.7143 10.4285V6.99993C20.7143 6.54527 20.5336 6.10924 20.2121 5.78774C19.8907 5.46626 19.4546 5.28564 19 5.28564H17.2857H6.14282" stroke="black" stroke-width="1.6" stroke-linecap="round" stroke-linejoin="round"/>
</g>
</svg>
