<svg width="168" height="168" viewBox="0 0 168 168" fill="none" xmlns="http://www.w3.org/2000/svg">
<path d="M77.552 96.0659L94.2622 93.9004V68.0242L43.1104 74.7274V78.3746L77.552 96.0659Z" fill="#FECFC4"/>
<path d="M77.552 96.0659L94.2622 93.9004V68.0242L43.1104 74.7274V78.3746L77.552 96.0659Z" stroke="#120071" stroke-width="0.84" stroke-linecap="round" stroke-linejoin="round"/>
<path d="M77.5522 96.0657L109.791 91.8867V75.7007L58.6396 82.4039V86.3511L77.5522 96.0657Z" fill="#FECFC4"/>
<path d="M77.5522 96.0657L109.791 91.8867V75.7007L58.6396 82.4039V86.3511L77.5522 96.0657Z" stroke="#120071" stroke-width="0.84" stroke-linecap="round" stroke-linejoin="round"/>
<path d="M77.5522 96.0658L124.985 89.917V83.3774L73.8335 90.0808V94.1556L77.5522 96.0658Z" fill="#FECFC4"/>
<path d="M77.5522 96.0658L124.985 89.917V83.3774L73.8335 90.0808V94.1556L77.5522 96.0658Z" stroke="#120071" stroke-width="0.84" stroke-linecap="round" stroke-linejoin="round"/>
<path d="M94.2622 63.8904V68.0064L43.1104 74.7096C46.8526 72.4743 47.2717 72.093 48.3612 71.9644L73.2588 68.6448L77.8712 63.0588C78.4306 62.3857 79.2224 61.9471 80.0897 61.8298L90.3041 60.4413C90.7971 60.3731 91.2986 60.4113 91.7758 60.5535C92.252 60.6956 92.693 60.9382 93.0677 61.265C93.4431 61.5919 93.7439 61.9953 93.9497 62.4482C94.1555 62.9011 94.2622 63.3928 94.2622 63.8904Z" fill="#6153BD"/>
<path d="M94.2622 63.8904V68.0064L43.1104 74.7096C46.8526 72.4743 47.2717 72.093 48.3612 71.9644L73.2588 68.6448L77.8712 63.0588C78.4306 62.3857 79.2224 61.9471 80.0897 61.8298L90.3041 60.4413C90.7971 60.3731 91.2986 60.4113 91.7758 60.5535C92.252 60.6956 92.693 60.9382 93.0677 61.265C93.4431 61.5919 93.7439 61.9953 93.9497 62.4482C94.1555 62.9011 94.2622 63.3928 94.2622 63.8904Z" stroke="#120071" stroke-width="0.84" stroke-linecap="round" stroke-linejoin="round"/>
<path d="M109.788 71.5678V75.7006L58.6321 82.4038C62.3743 80.1686 62.7934 79.7872 63.8829 79.6587L88.7881 76.339L93.4005 70.753C93.96 70.0799 94.7512 69.6413 95.619 69.5241L105.833 68.1356C106.325 68.0668 106.825 68.1041 107.301 68.245C107.776 68.3858 108.216 68.627 108.591 68.9522C108.966 69.2774 109.266 69.6792 109.473 70.1303C109.68 70.5815 109.787 71.0716 109.788 71.5678Z" fill="#6153BD"/>
<path d="M109.788 71.5678V75.7006L58.6321 82.4038C62.3743 80.1686 62.7934 79.7872 63.8829 79.6587L88.7881 76.339L93.4005 70.753C93.96 70.0799 94.7512 69.6413 95.619 69.5241L105.833 68.1356C106.325 68.0668 106.825 68.1041 107.301 68.245C107.776 68.3858 108.216 68.627 108.591 68.9522C108.966 69.2774 109.266 69.6792 109.473 70.1303C109.68 70.5815 109.787 71.0716 109.788 71.5678Z" stroke="#120071" stroke-width="0.84" stroke-linecap="round" stroke-linejoin="round"/>
<path d="M124.985 79.2438V83.3598L73.8359 90.0648C77.5781 87.8296 77.9973 87.4482 79.0868 87.3197L103.984 84.016L108.597 78.4299C109.156 77.7568 109.948 77.3182 110.815 77.201L121.03 75.8124C121.521 75.7436 122.022 75.7808 122.497 75.9216C122.973 76.0623 123.413 76.3033 123.788 76.6285C124.163 76.9536 124.464 77.3553 124.67 77.8064C124.877 78.2575 124.984 78.7477 124.985 79.2438Z" fill="#6153BD"/>
<path d="M124.985 79.2438V83.3598L73.8359 90.0648C77.5781 87.8296 77.9973 87.4482 79.0868 87.3197L103.984 84.016L108.597 78.4299C109.156 77.7568 109.948 77.3182 110.815 77.201L121.03 75.8124C121.521 75.7436 122.022 75.7808 122.497 75.9216C122.973 76.0623 123.413 76.3033 123.788 76.6285C124.163 76.9536 124.464 77.3553 124.67 77.8064C124.877 78.2575 124.984 78.7477 124.985 79.2438Z" stroke="#120071" stroke-width="0.84" stroke-linecap="round" stroke-linejoin="round"/>
<path d="M77.5522 96.0657V125.911L127.539 119.431V89.5859L77.5522 96.0657Z" stroke="#120071" stroke-width="0.84" stroke-linecap="round" stroke-linejoin="round"/>
<path d="M40.1738 76.8657L77.5521 96.0658V125.927L40.1738 106.727V76.8657Z" stroke="#120071" stroke-width="0.84" stroke-linecap="round" stroke-linejoin="round"/>
<path d="M104.014 110.238C105.16 110.238 106.089 109.309 106.089 108.163C106.089 107.018 105.16 106.089 104.014 106.089C102.868 106.089 101.939 107.018 101.939 108.163C101.939 109.309 102.868 110.238 104.014 110.238Z" fill="#6153BD"/>
<path d="M104.014 110.238C105.16 110.238 106.089 109.309 106.089 108.163C106.089 107.018 105.16 106.089 104.014 106.089C102.868 106.089 101.939 107.018 101.939 108.163C101.939 109.309 102.868 110.238 104.014 110.238Z" stroke="#120071" stroke-width="0.84" stroke-linecap="round" stroke-linejoin="round"/>
<path d="M67.2101 44.2915C74.7993 44.2915 80.9516 38.1391 80.9516 30.5499C80.9516 22.9607 74.7993 16.8083 67.2101 16.8083C59.6208 16.8083 53.4685 22.9607 53.4685 30.5499C53.4685 38.1391 59.6208 44.2915 67.2101 44.2915Z" stroke="#120071" stroke-width="0.84" stroke-linecap="round" stroke-linejoin="round"/>
<path d="M67.21 28.4751C68.5851 28.4751 69.6997 27.3604 69.6997 25.9854C69.6997 24.6104 68.5851 23.4956 67.21 23.4956C65.8349 23.4956 64.7202 24.6104 64.7202 25.9854C64.7202 27.3604 65.8349 28.4751 67.21 28.4751Z" fill="#FECFC4"/>
<path d="M67.21 28.4751C68.5851 28.4751 69.6997 27.3604 69.6997 25.9854C69.6997 24.6104 68.5851 23.4956 67.21 23.4956C65.8349 23.4956 64.7202 24.6104 64.7202 25.9854C64.7202 27.3604 65.8349 28.4751 67.21 28.4751Z" stroke="#120071" stroke-width="0.84" stroke-linecap="round" stroke-linejoin="round"/>
<path d="M59.8843 37.6043C59.8843 37.6043 61.7197 31.6512 67.2099 31.731C72.7002 31.8108 74.5515 37.6043 74.5515 37.6043" stroke="#120071" stroke-width="0.84" stroke-linecap="round" stroke-linejoin="round"/>
<path d="M17.9415 82.9306C25.5307 82.9306 31.6831 76.7784 31.6831 69.1891C31.6831 61.5998 25.5307 55.4475 17.9415 55.4475C10.3523 55.4475 4.19995 61.5998 4.19995 69.1891C4.19995 76.7784 10.3523 82.9306 17.9415 82.9306Z" stroke="#120071" stroke-width="0.84" stroke-linecap="round" stroke-linejoin="round"/>
<path d="M17.9414 67.1143C19.3165 67.1143 20.4312 65.9995 20.4312 64.6245C20.4312 63.2494 19.3165 62.1348 17.9414 62.1348C16.5663 62.1348 15.4517 63.2494 15.4517 64.6245C15.4517 65.9995 16.5663 67.1143 17.9414 67.1143Z" fill="#FECFC4"/>
<path d="M17.9414 67.1143C19.3165 67.1143 20.4312 65.9995 20.4312 64.6245C20.4312 63.2494 19.3165 62.1348 17.9414 62.1348C16.5663 62.1348 15.4517 63.2494 15.4517 64.6245C15.4517 65.9995 16.5663 67.1143 17.9414 67.1143Z" stroke="#120071" stroke-width="0.84" stroke-linecap="round" stroke-linejoin="round"/>
<path d="M10.5999 76.2432C10.5999 76.2432 12.4353 70.2901 17.9255 70.3699C23.4157 70.4497 25.2671 76.2432 25.2671 76.2432" stroke="#120071" stroke-width="0.84" stroke-linecap="round" stroke-linejoin="round"/>
<path d="M17.9415 149.324C25.5307 149.324 31.6831 143.172 31.6831 135.583C31.6831 127.993 25.5307 121.841 17.9415 121.841C10.3523 121.841 4.19995 127.993 4.19995 135.583C4.19995 143.172 10.3523 149.324 17.9415 149.324Z" stroke="#120071" stroke-width="0.84" stroke-linecap="round" stroke-linejoin="round"/>
<path d="M17.9356 133.503C19.3106 133.503 20.4253 132.388 20.4253 131.013C20.4253 129.638 19.3106 128.523 17.9356 128.523C16.5605 128.523 15.4458 129.638 15.4458 131.013C15.4458 132.388 16.5605 133.503 17.9356 133.503Z" fill="#FECFC4"/>
<path d="M17.9356 133.503C19.3106 133.503 20.4253 132.388 20.4253 131.013C20.4253 129.638 19.3106 128.523 17.9356 128.523C16.5605 128.523 15.4458 129.638 15.4458 131.013C15.4458 132.388 16.5605 133.503 17.9356 133.503Z" stroke="#120071" stroke-width="0.84" stroke-linecap="round" stroke-linejoin="round"/>
<path d="M10.5999 142.637C10.5999 142.637 12.4353 136.684 17.9255 136.764C23.4157 136.844 25.2671 142.637 25.2671 142.637" stroke="#120071" stroke-width="0.84" stroke-linecap="round" stroke-linejoin="round"/>
<path d="M150.058 105.913C157.648 105.913 163.8 99.761 163.8 92.1716C163.8 84.5822 157.648 78.4299 150.058 78.4299C142.469 78.4299 136.317 84.5822 136.317 92.1716C136.317 99.761 142.469 105.913 150.058 105.913Z" stroke="#120071" stroke-width="0.84" stroke-linecap="round" stroke-linejoin="round"/>
<path d="M150.058 90.0967C151.433 90.0967 152.548 88.982 152.548 87.6069C152.548 86.2319 151.433 85.1172 150.058 85.1172C148.683 85.1172 147.569 86.2319 147.569 87.6069C147.569 88.982 148.683 90.0967 150.058 90.0967Z" fill="#FECFC4"/>
<path d="M150.058 90.0967C151.433 90.0967 152.548 88.982 152.548 87.6069C152.548 86.2319 151.433 85.1172 150.058 85.1172C148.683 85.1172 147.569 86.2319 147.569 87.6069C147.569 88.982 148.683 90.0967 150.058 90.0967Z" stroke="#120071" stroke-width="0.84" stroke-linecap="round" stroke-linejoin="round"/>
<path d="M142.733 99.2259C142.733 99.2259 144.568 93.2728 150.058 93.3526C155.549 93.4324 157.4 99.2259 157.4 99.2259" stroke="#120071" stroke-width="0.84" stroke-linecap="round" stroke-linejoin="round"/>
<path d="M67.21 55.4314H150.058V78.4298" stroke="#120071" stroke-width="0.84" stroke-linecap="round" stroke-linejoin="round"/>
<path d="M17.9414 82.9146V121.841" stroke="#120071" stroke-width="0.84" stroke-linecap="round" stroke-linejoin="round"/>
<path d="M31.6829 135.583H104.014V122.479" stroke="#120071" stroke-width="0.84" stroke-linecap="round" stroke-linejoin="round"/>
<path d="M67.21 44.2754V69.3805" stroke="#120071" stroke-width="0.84" stroke-linecap="round" stroke-linejoin="round"/>
<path d="M127.539 140.387L127.523 151.192" stroke="#120071" stroke-width="0.84" stroke-linecap="round" stroke-linejoin="round"/>
<path d="M132.933 145.797L122.128 145.781" stroke="#120071" stroke-width="0.84" stroke-linecap="round" stroke-linejoin="round"/>
<path d="M29.736 32.5132C30.8378 32.5132 31.731 31.6199 31.731 30.5182C31.731 29.4164 30.8378 28.5232 29.736 28.5232C28.6341 28.5232 27.741 29.4164 27.741 30.5182C27.741 31.6199 28.6341 32.5132 29.736 32.5132Z" stroke="#120071" stroke-width="0.84" stroke-linecap="round" stroke-linejoin="round"/>
</svg>
