<svg width="24" height="24" viewBox="0 0 24 24" fill="none" xmlns="http://www.w3.org/2000/svg">
<g id="File Dollar" clip-path="url(#clip0_187_11877)">
<g id="file-dollar--common-money-currency-cash-file">
<path id="Vector" d="M14.5715 0.857422H2.57146C2.1168 0.857422 1.68077 1.03803 1.35928 1.35952C1.03779 1.68102 0.857178 2.11704 0.857178 2.57171V21.4289C0.857178 21.8835 1.03779 22.3196 1.35928 22.641C1.68077 22.9625 2.1168 23.1431 2.57146 23.1431H21.4286C21.8832 23.1431 22.3193 22.9625 22.6408 22.641C22.9622 22.3196 23.1429 21.8835 23.1429 21.4289V9.42885L14.5715 0.857422Z" stroke="#636363" stroke-width="1.6" stroke-linecap="round" stroke-linejoin="round"/>
<path id="Vector_2" d="M14.5715 8.57171V0.857422L23.1429 9.42885H15.4286C15.2013 9.42885 14.9833 9.33854 14.8225 9.17779C14.6618 9.01706 14.5715 8.79904 14.5715 8.57171Z" stroke="#636363" stroke-width="1.6" stroke-linecap="round" stroke-linejoin="round"/>
<path id="Vector_3" d="M14.5715 16.286H19.7143" stroke="#636363" stroke-width="1.6" stroke-linecap="round" stroke-linejoin="round"/>
<path id="Vector 3" d="M10.6795 8.95271C10.5791 8.6688 10.4243 8.41065 10.2275 8.19081C9.80898 7.72319 9.20077 7.42889 8.52381 7.42889H6.7546C5.62777 7.42889 4.71429 8.34237 4.71429 9.4692C4.71429 10.428 5.38192 11.2575 6.31859 11.4624L9.01227 12.0516C10.0616 12.2812 10.8095 13.2111 10.8095 14.2852C10.8095 15.5476 9.78618 16.5718 8.52381 16.5718H7C6.00479 16.5718 5.15814 15.9357 4.84436 15.048" stroke="#636363" stroke-width="1.6" stroke-linecap="round" stroke-linejoin="round"/>
<path id="Vector 2489" d="M7.76196 7.42926V5.14355" stroke="#636363" stroke-width="1.6" stroke-linecap="round" stroke-linejoin="round"/>
<path id="Vector 2490" d="M7.76196 18.8571V16.5713" stroke="#636363" stroke-width="1.6" stroke-linecap="round" stroke-linejoin="round"/>
</g>
</g>
<defs>
<clipPath id="clip0_187_11877">
<rect width="24" height="24" fill="white"/>
</clipPath>
</defs>
</svg>
