<svg width="24" height="20" viewBox="0 0 24 20" fill="none" xmlns="http://www.w3.org/2000/svg">
<g id="Frame 1000002223" clip-path="url(#clip0_187_11865)">
<path id="Polygon 43" d="M11.1595 17.8207L1.66319 8.50063C1.27345 8.11812 1.19112 7.5207 1.46287 7.04703L4.70107 1.40282C4.915 1.02994 5.31204 0.799984 5.74193 0.799984L18.2581 0.799984C18.688 0.799984 19.085 1.02994 19.2989 1.40282L22.5371 7.04703C22.8089 7.5207 22.7266 8.11812 22.3368 8.50063L12.8405 17.8207C12.3738 18.2788 11.6262 18.2788 11.1595 17.8207Z" stroke="#636363" stroke-width="1.6" stroke-linejoin="round"/>
<path id="Vector_3" d="M12 12.5L15.5 7" stroke="#636363" stroke-width="1.6" stroke-linecap="round" stroke-linejoin="round"/>
<path id="Vector_5" d="M12 2.71429V1" stroke="#636363" stroke-width="1.6" stroke-linecap="round" stroke-linejoin="round"/>
<path id="Vector_6" d="M7 4L5 1" stroke="#636363" stroke-width="1.6" stroke-linecap="round" stroke-linejoin="round"/>
<path id="Vector_6_2" d="M17 4L19 1" stroke="#636363" stroke-width="1.6" stroke-linecap="round" stroke-linejoin="round"/>
<path id="Vector_7" d="M5.0001 8.50055L1.50016 7.99972" stroke="#636363" stroke-width="1.6" stroke-linecap="round" stroke-linejoin="round"/>
<path id="Vector_7_2" d="M18.4999 8.50055L21.9998 7.99972" stroke="#636363" stroke-width="1.6" stroke-linecap="round" stroke-linejoin="round"/>
</g>
<defs>
<clipPath id="clip0_187_11865">
<rect width="24" height="19.7666" fill="white"/>
</clipPath>
</defs>
</svg>
