<svg width="124" height="128" viewBox="0 0 124 128" fill="none" xmlns="http://www.w3.org/2000/svg">
<g opacity="0.15">
<path d="M13.2734 44.3564L79.0778 70.8962" stroke="white" stroke-width="8.66897" stroke-linecap="round" stroke-linejoin="round"/>
<path d="M52.9922 41.6079L46.1779 57.6261" stroke="white" stroke-width="8.66897" stroke-linecap="round" stroke-linejoin="round"/>
<path d="M25.875 49.335C17.8706 68.0055 28.7638 90.8447 46.0434 113.977" stroke="white" stroke-width="8.66897" stroke-linecap="round" stroke-linejoin="round"/>
<path d="M66.7445 65.6909C59.1488 84.525 34.3221 93.0691 5.1739 97.6209" stroke="white" stroke-width="8.66897" stroke-linecap="round" stroke-linejoin="round"/>
<path d="M4.63808 8.186C7.84311 0.710607 13.9332 -5.25154 21.5686 -8.38885C29.2041 -11.5262 37.7594 -11.5816 45.3525 -8.54305" stroke="white" stroke-width="8.66897" stroke-linecap="round" stroke-linejoin="round"/>
<path d="M4.63808 8.186C7.84311 0.710607 13.9332 -5.25154 21.5686 -8.38885C29.2041 -11.5262 37.7594 -11.5816 45.3525 -8.54305" stroke="white" stroke-width="8.66897" stroke-linecap="round" stroke-linejoin="round"/>
<path d="M25.1977 16.37C26.1134 14.2342 27.8534 12.5307 30.035 11.6344C32.2165 10.738 34.6609 10.7221 36.8303 11.5903" stroke="white" stroke-width="8.66897" stroke-linecap="round" stroke-linejoin="round"/>
<path d="M25.1977 16.37C26.1134 14.2342 27.8534 12.5307 30.035 11.6344C32.2165 10.738 34.6609 10.7221 36.8303 11.5903" stroke="white" stroke-width="8.66897" stroke-linecap="round" stroke-linejoin="round"/>
<path d="M94.8623 11.5151C102.455 14.5537 108.464 20.4374 111.567 27.8719C114.67 35.3064 114.613 43.6827 111.408 51.1581" stroke="white" stroke-width="8.66897" stroke-linecap="round" stroke-linejoin="round"/>
<path d="M94.8623 11.5151C102.455 14.5537 108.464 20.4374 111.567 27.8719C114.67 35.3064 114.613 43.6827 111.408 51.1581" stroke="white" stroke-width="8.66897" stroke-linecap="round" stroke-linejoin="round"/>
<path d="M86.2295 31.5391C88.3989 32.4072 90.1158 34.0883 91.0023 36.2124C91.8888 38.3366 91.8724 40.7298 90.9567 42.8656" stroke="white" stroke-width="8.66897" stroke-linecap="round" stroke-linejoin="round"/>
<path d="M86.2295 31.5391C88.3989 32.4072 90.1158 34.0883 91.0023 36.2124C91.8888 38.3366 91.8724 40.7298 90.9567 42.8656" stroke="white" stroke-width="8.66897" stroke-linecap="round" stroke-linejoin="round"/>
</g>
</svg>
