<svg width="24" height="24" viewBox="0 0 24 24" fill="none" xmlns="http://www.w3.org/2000/svg">
<g id="Horizontal Slider 2">
<g id="horizontal-slider-2--adjustment-adjust-controls-fader-horizontal-settings-slider">
<path id="Vector" d="M3.42861 6.00028C4.84877 6.00028 6.00003 4.84902 6.00003 3.42885C6.00003 2.00868 4.84877 0.857422 3.42861 0.857422C2.00844 0.857422 0.857178 2.00868 0.857178 3.42885C0.857178 4.84902 2.00844 6.00028 3.42861 6.00028Z" stroke="#636363" stroke-width="1.6" stroke-linecap="round" stroke-linejoin="round"/>
<path id="Vector_2" d="M6.00006 3.42883H23.1429" stroke="#636363" stroke-width="1.6" stroke-linecap="round" stroke-linejoin="round"/>
<path id="Vector_3" d="M12 14.5717C13.4202 14.5717 14.5714 13.4204 14.5714 12.0003C14.5714 10.5801 13.4202 9.42883 12 9.42883C10.5799 9.42883 9.42859 10.5801 9.42859 12.0003C9.42859 13.4204 10.5799 14.5717 12 14.5717Z" stroke="#636363" stroke-width="1.6" stroke-linecap="round" stroke-linejoin="round"/>
<path id="Vector_4" d="M0.857178 12H9.42861" stroke="#636363" stroke-width="1.6" stroke-linecap="round" stroke-linejoin="round"/>
<path id="Vector_5" d="M14.5715 12H23.1429" stroke="#636363" stroke-width="1.6" stroke-linecap="round" stroke-linejoin="round"/>
<path id="Vector_6" d="M20.5714 23.1429C21.9915 23.1429 23.1429 21.9915 23.1429 20.5714C23.1429 19.1513 21.9915 18 20.5714 18C19.1513 18 18 19.1513 18 20.5714C18 21.9915 19.1513 23.1429 20.5714 23.1429Z" stroke="#636363" stroke-width="1.6" stroke-linecap="round" stroke-linejoin="round"/>
<path id="Vector_7" d="M18 20.5713H0.857178" stroke="#636363" stroke-width="1.6" stroke-linecap="round" stroke-linejoin="round"/>
</g>
</g>
</svg>
