<svg width="12" height="12" viewBox="0 0 12 12" fill="none" xmlns="http://www.w3.org/2000/svg">
<g id="Information Circle" clip-path="url(#clip0_188_19113)">
<g id="information-circle--information-frame-info-more-help-point-circle">
<path id="Vector" d="M5.9999 11.5713C9.07695 11.5713 11.5713 9.07695 11.5713 5.9999C11.5713 2.92288 9.07695 0.428467 5.9999 0.428467C2.92288 0.428467 0.428467 2.92288 0.428467 5.9999C0.428467 9.07695 2.92288 11.5713 5.9999 11.5713Z" stroke="#6C6C6C" stroke-width="0.857143" stroke-linecap="round" stroke-linejoin="round"/>
<path id="Vector_2" d="M4.71411 8.57129H7.28554" stroke="#6C6C6C" stroke-width="0.857143" stroke-linecap="round" stroke-linejoin="round"/>
<path id="Vector_3" d="M5.99997 8.57129V5.57129H5.14282" stroke="#6C6C6C" stroke-width="0.857143" stroke-linecap="round" stroke-linejoin="round"/>
<g id="Group 2605">
<path id="Ellipse 1111" d="M5.99993 3.64268C5.88158 3.64268 5.78564 3.54674 5.78564 3.4284C5.78564 3.31005 5.88158 3.21411 5.99993 3.21411" stroke="#6C6C6C" stroke-width="0.857143" stroke-linecap="round" stroke-linejoin="round"/>
<path id="Ellipse 1112" d="M6 3.64268C6.11835 3.64268 6.21429 3.54674 6.21429 3.4284C6.21429 3.31005 6.11835 3.21411 6 3.21411" stroke="#6C6C6C" stroke-width="0.857143" stroke-linecap="round" stroke-linejoin="round"/>
</g>
</g>
</g>
<defs>
<clipPath id="clip0_188_19113">
<rect width="12" height="12" fill="white"/>
</clipPath>
</defs>
</svg>
