<svg width="15" height="15" viewBox="0 0 15 15" fill="none" xmlns="http://www.w3.org/2000/svg">
<g id="Mail Chat Bubble Oval Check">
<path id="Vector" d="M7.49796 0.600465C6.24993 0.600854 5.02538 0.939751 3.95473 1.58106C2.88408 2.22238 2.00743 3.14208 1.41814 4.24222C0.828851 5.34237 0.549003 6.58175 0.608401 7.82836C0.667799 9.07498 1.06422 10.2821 1.75544 11.3212L0.598434 14.3995L4.47278 13.6989C5.40572 14.1548 6.42951 14.3943 7.46786 14.3994C8.50622 14.4046 9.53234 14.1753 10.4697 13.7286C11.4072 13.282 12.2316 12.6295 12.8818 11.8199C13.5319 11.0103 13.9909 10.0643 14.2246 9.0526C14.4583 8.04088 14.4605 6.98945 14.2314 5.97672C14.0021 4.96397 13.5471 4.01603 12.9005 3.20357C12.2539 2.39109 11.4324 1.73505 10.4969 1.28434C9.56143 0.833618 8.53632 0.599852 7.49796 0.600465Z" fill="#4A5A70"/>
<path id="Vector_2" d="M10.7143 5.08923L6.42857 9.91066L4.28571 8.30352" stroke="white" stroke-linecap="round" stroke-linejoin="round"/>
</g>
</svg>
