<svg width="24" height="24" viewBox="0 0 24 24" fill="none" xmlns="http://www.w3.org/2000/svg">
<g id="Mail Chat Bubble Typing Square" clip-path="url(#clip0_187_11834)">
<g id="Group">
<path id="Vector" d="M7.28573 12.0003C7.75912 12.0003 8.14287 11.6165 8.14287 11.1432C8.14287 10.6698 7.75912 10.286 7.28573 10.286C6.81234 10.286 6.42859 10.6698 6.42859 11.1432C6.42859 11.6165 6.81234 12.0003 7.28573 12.0003Z" stroke="#636363" stroke-width="1.6" stroke-linecap="round" stroke-linejoin="round"/>
<path id="Vector_2" d="M12.8572 12.0003C13.3306 12.0003 13.7143 11.6165 13.7143 11.1432C13.7143 10.6698 13.3306 10.286 12.8572 10.286C12.3838 10.286 12.0001 10.6698 12.0001 11.1432C12.0001 11.6165 12.3838 12.0003 12.8572 12.0003Z" stroke="#636363" stroke-width="1.6" stroke-linecap="round" stroke-linejoin="round"/>
<path id="Vector_3" d="M18.4286 12.0003C18.902 12.0003 19.2858 11.6165 19.2858 11.1432C19.2858 10.6698 18.902 10.286 18.4286 10.286C17.9552 10.286 17.5715 10.6698 17.5715 11.1432C17.5715 11.6165 17.9552 12.0003 18.4286 12.0003Z" stroke="#636363" stroke-width="1.6" stroke-linecap="round" stroke-linejoin="round"/>
<path id="Vector_4" d="M7.71432 21.4289L0.857178 23.1431L2.57146 18.0003V2.57171C2.57146 2.11705 2.75208 1.68102 3.07357 1.35952C3.39506 1.03803 3.83109 0.857422 4.28575 0.857422H21.4286C21.8833 0.857422 22.3193 1.03803 22.6408 1.35952C22.9623 1.68102 23.1429 2.11705 23.1429 2.57171V19.7146C23.1429 20.1692 22.9623 20.6053 22.6408 20.9267C22.3193 21.2482 21.8833 21.4289 21.4286 21.4289H7.71432Z" stroke="#636363" stroke-width="1.6" stroke-linecap="round" stroke-linejoin="round"/>
</g>
</g>
<defs>
<clipPath id="clip0_187_11834">
<rect width="24" height="24" fill="white"/>
</clipPath>
</defs>
</svg>
