<svg width="24" height="24" viewBox="0 0 24 24" fill="none" xmlns="http://www.w3.org/2000/svg">
<g id="Money Cash Dollar Coin" clip-path="url(#clip0_187_11840)">
<g id="Group">
<path id="Vector" d="M12 7.71498V5.14355" stroke="#636363" stroke-width="1.6" stroke-linecap="round" stroke-linejoin="round"/>
<g id="Group_2">
<path id="Vector_2" d="M9.42859 14.572C9.42859 15.8577 10.5772 16.2863 12 16.2863C13.4229 16.2863 14.5714 16.2863 14.5714 14.572C14.5714 12.0006 9.42859 12.0006 9.42859 9.42913C9.42859 7.71484 10.5772 7.71484 12 7.71484C13.4229 7.71484 14.5714 8.36627 14.5714 9.42913" stroke="#636363" stroke-width="1.6" stroke-linecap="round" stroke-linejoin="round"/>
<path id="Vector_3" d="M12 16.2863V18.8577" stroke="#636363" stroke-width="1.6" stroke-linecap="round" stroke-linejoin="round"/>
</g>
<path id="Vector_4" d="M12 23.1431C18.1541 23.1431 23.1429 18.1543 23.1429 12.0003C23.1429 5.84625 18.1541 0.857422 12 0.857422C5.846 0.857422 0.857178 5.84625 0.857178 12.0003C0.857178 18.1543 5.846 23.1431 12 23.1431Z" stroke="#636363" stroke-width="1.6" stroke-linecap="round" stroke-linejoin="round"/>
</g>
</g>
<defs>
<clipPath id="clip0_187_11840">
<rect width="24" height="24" fill="white"/>
</clipPath>
</defs>
</svg>
