<svg width="24" height="24" viewBox="0 0 24 24" fill="none" xmlns="http://www.w3.org/2000/svg">
<g id="News Paper">
<g id="news-paper--newspaper-periodical-fold-content-entertainment">
<path id="Vector" d="M23.1428 7.71429V18.8571C23.1428 19.4254 22.9171 19.9706 22.5152 20.3724C22.1134 20.7742 21.5683 21 21 21M21 21C20.4317 21 19.8865 20.7742 19.4847 20.3724C19.0829 19.9706 18.8571 19.4254 18.8571 18.8571V3.85714C18.8571 3.62981 18.7668 3.41179 18.6061 3.25106C18.4453 3.09031 18.2273 3 18 3H1.71426C1.48693 3 1.26891 3.09031 1.10817 3.25106C0.947422 3.41179 0.857117 3.62981 0.857117 3.85714V19.2857C0.857117 19.7403 1.03773 20.1765 1.35922 20.4979C1.68071 20.8193 2.11674 21 2.5714 21H21Z" stroke="#636363" stroke-width="1.71429" stroke-linecap="round" stroke-linejoin="round"/>
<path id="Vector_2" d="M13.7143 7.28577H6V11.5715H13.7143V7.28577Z" stroke="#636363" stroke-width="1.71429" stroke-linecap="round" stroke-linejoin="round"/>
<path id="Vector_3" d="M6 16.7142H13.7143" stroke="#636363" stroke-width="1.71429" stroke-linecap="round" stroke-linejoin="round"/>
</g>
</g>
</svg>
