<svg width="410" height="410" viewBox="0 0 410 410" fill="none" xmlns="http://www.w3.org/2000/svg">
<path d="M205 147.585V95.747H128.457C128.457 75.862 121.243 63.562 107.625 63.562C94.0068 63.562 86.7909 75.862 86.7909 95.747H10.25V170.23C30.135 170.23 46.2562 177.446 46.2562 191.064C46.2562 204.682 30.135 211.896 10.25 211.896V294.821H86.7909C86.7909 314.706 94.0068 330.827 107.625 330.827C121.243 330.827 128.457 314.706 128.457 294.821H205V275.979" stroke="#120071" stroke-width="2" stroke-linecap="round" stroke-linejoin="round"/>
<path d="M205 294.823H284.013C284.013 314.708 291.229 330.829 304.847 330.829C318.465 330.829 325.679 314.708 325.679 294.823H399.75V211.896C379.865 211.896 363.744 204.68 363.744 191.064C363.744 177.448 379.865 170.23 399.75 170.23V95.7473H325.679C325.679 107.615 323.111 118.144 318.144 124.702" stroke="#120071" stroke-width="2" stroke-linecap="round" stroke-linejoin="round"/>
<path d="M299.478 130.829C289.341 127.139 284.015 112.834 284.015 95.7473H205" stroke="#120071" stroke-width="2" stroke-linecap="round" stroke-linejoin="round"/>
<path d="M323.553 227.171C308.541 210.771 288.471 196.831 270.341 183.6C260.642 176.657 249.679 171.68 238.068 168.951C227.892 166.247 229.253 154.972 211.213 149.293C193.001 143.565 179.643 145.193 157.316 152.641C133.401 160.611 124.863 164.783 99.373 166.542V243.597C135.949 249.378 217.674 250.157 237.11 254.366C248.685 256.881 269.119 263.538 278.414 263.741C284.404 263.874 286.175 260.813 287.114 256.877C288.496 258.257 290.29 259.149 292.225 259.413C294.16 259.678 296.128 259.3 297.829 258.341C299.531 257.382 300.87 255.891 301.644 254.1C302.419 252.306 302.585 250.309 302.118 248.413C303.354 249.085 304.732 249.458 306.138 249.499C307.544 249.54 308.942 249.251 310.216 248.653C311.491 248.052 312.604 247.162 313.469 246.053C314.336 244.942 314.926 243.645 315.197 242.263C317.102 242.724 319.106 242.548 320.9 241.761C322.696 240.971 324.182 239.616 325.133 237.903C326.083 236.187 326.443 234.208 326.158 232.269C325.873 230.33 324.961 228.536 323.559 227.167L323.553 227.171Z" stroke="#120071" stroke-width="2" stroke-linecap="round" stroke-linejoin="round"/>
<path d="M224.445 230.478C242.436 235.699 289.504 239.293 287.11 256.879" stroke="#120071" stroke-width="2" stroke-linecap="round" stroke-linejoin="round"/>
<path d="M238.071 168.952C214.541 163.132 185.855 164.159 152.553 171.019" stroke="#120071" stroke-width="2" stroke-linecap="round" stroke-linejoin="round"/>
<path d="M236.533 212.88C254.163 216.388 300.026 237.316 302.113 248.417" stroke="#120071" stroke-width="2" stroke-linecap="round" stroke-linejoin="round"/>
<path d="M244.609 195.283C267.043 200.959 316.292 229.502 315.193 242.269" stroke="#120071" stroke-width="2" stroke-linecap="round" stroke-linejoin="round"/>
<path d="M56.0586 167.261V239.085C64.3242 240.711 88.5818 241.898 99.3669 243.595V166.543C90.2649 167.163 67.2639 167.261 56.0586 167.261ZM77.7127 191.105C76.0668 191.104 74.4578 190.616 73.0894 189.701C71.7208 188.786 70.6544 187.486 70.0248 185.965C69.3951 184.444 69.2307 182.771 69.5519 181.156C69.8733 179.542 70.6663 178.059 71.8303 176.896C72.9943 175.732 74.4774 174.939 76.0918 174.618C77.7062 174.297 79.3796 174.462 80.9003 175.092C82.421 175.722 83.7209 176.789 84.6352 178.158C85.5497 179.527 86.0378 181.136 86.0378 182.782C86.0378 183.875 85.8225 184.957 85.4041 185.967C84.9857 186.977 84.3724 187.895 83.5993 188.667C82.8263 189.441 81.9085 190.053 80.8984 190.472C79.8884 190.89 78.806 191.105 77.7127 191.105Z" fill="#6153BD"/>
<path d="M99.3669 166.543C90.2649 167.158 67.2639 167.261 56.0586 167.261V239.085C64.3242 240.711 88.5818 241.898 99.3669 243.595V166.543Z" stroke="#120071" stroke-width="2" stroke-linecap="round" stroke-linejoin="round"/>
<path d="M77.7136 191.105C82.3103 191.105 86.0366 187.379 86.0366 182.782C86.0366 178.186 82.3103 174.459 77.7136 174.459C73.1169 174.459 69.3906 178.186 69.3906 182.782C69.3906 187.379 73.1169 191.105 77.7136 191.105Z" stroke="#120071" stroke-width="2" stroke-linecap="round" stroke-linejoin="round"/>
<path d="M74.3379 179.619L81.0865 186.368" stroke="#120071" stroke-width="2" stroke-linecap="round" stroke-linejoin="round"/>
<path d="M74.3379 186.368L81.0865 179.619" stroke="#120071" stroke-width="2" stroke-linecap="round" stroke-linejoin="round"/>
<path d="M46.7051 123.707H65.4134" stroke="#120071" stroke-width="2" stroke-linecap="round" stroke-linejoin="round"/>
<path d="M56.0586 133.061V114.351" stroke="#120071" stroke-width="2" stroke-linecap="round" stroke-linejoin="round"/>
<path d="M232.971 315.007H243.176" stroke="#120071" stroke-width="2" stroke-linecap="round" stroke-linejoin="round"/>
<path d="M238.07 320.109V309.905" stroke="#120071" stroke-width="2" stroke-linecap="round" stroke-linejoin="round"/>
<path d="M330.758 333.201L343.989 346.429" stroke="#120071" stroke-width="2" stroke-linecap="round" stroke-linejoin="round"/>
<path d="M330.758 346.429L343.989 333.201" stroke="#120071" stroke-width="2" stroke-linecap="round" stroke-linejoin="round"/>
<path d="M224.938 127.442L230.723 136.982L237.524 122.729" stroke="#120071" stroke-width="2" stroke-linecap="round" stroke-linejoin="round"/>
<path d="M237.107 254.37C230.166 251.92 226.857 254.102 220.406 248.382C214.896 243.501 209.145 225.516 197.011 221.351C192.282 219.727 184.683 222.329 189.176 237.849C186.261 234.307 183.065 230.59 177.891 224.084C175.208 220.709 172.522 216.909 166.856 216.162C165.6 215.994 164.322 216.107 163.115 216.492C161.908 216.878 160.801 217.526 159.874 218.391C158.947 219.254 158.223 220.314 157.753 221.49C157.284 222.667 157.081 223.934 157.159 225.199C158.134 230.908 160.016 236.425 162.735 241.539C156.585 233.852 155.433 231.115 148.701 223.93C143.873 218.778 131.756 220.855 135.138 231.99C135.696 233.827 136.37 235.627 137.155 237.38C129.751 230.73 115.807 237.995 130.926 254.651C137.795 262.212 190.669 298.494 250.961 257.888L237.107 254.37Z" fill="#FECFC4"/>
<path d="M237.107 254.37C230.166 251.92 226.857 254.102 220.406 248.382C214.896 243.501 209.145 225.516 197.011 221.351C192.282 219.727 184.683 222.329 189.176 237.849C186.261 234.307 183.065 230.59 177.891 224.084C175.208 220.709 172.522 216.909 166.856 216.162C165.6 215.994 164.322 216.107 163.115 216.492C161.908 216.878 160.801 217.526 159.874 218.391C158.947 219.254 158.223 220.314 157.753 221.49C157.284 222.667 157.081 223.934 157.159 225.199C158.134 230.908 160.016 236.425 162.735 241.539C156.585 233.852 155.433 231.115 148.701 223.93C143.873 218.778 131.756 220.855 135.138 231.99C135.696 233.827 136.37 235.627 137.155 237.38C129.751 230.73 115.807 237.995 130.926 254.651C137.795 262.212 190.669 298.494 250.961 257.888L237.107 254.37Z" stroke="#120071" stroke-width="2" stroke-linecap="round" stroke-linejoin="round"/>
<path d="M162.729 241.537C170.549 256.878 174.209 261.5 183.147 271.281" stroke="#120071" stroke-width="2" stroke-linecap="round" stroke-linejoin="round"/>
<path d="M162.73 272.097C151.416 264.426 141.135 246.297 137.158 237.4" stroke="#120071" stroke-width="2" stroke-linecap="round" stroke-linejoin="round"/>
<path d="M189.17 237.847C192.768 246.351 197.019 256.877 208.499 266.656" stroke="#120071" stroke-width="2" stroke-linecap="round" stroke-linejoin="round"/>
<path d="M274.766 145.857C263.131 149.224 249.847 151.71 238.922 151.142C224.429 150.39 203.293 153.127 187.508 163.647C185.683 164.874 184.306 166.661 183.586 168.739C182.866 170.817 182.841 173.073 183.516 175.166C184.191 177.26 185.528 179.076 187.326 180.343C189.124 181.609 191.286 182.256 193.484 182.185C204.574 181.581 215.583 179.93 226.362 177.253C239.875 174.203 248.25 173.633 260.82 179.455C274.004 185.562 307.905 212.239 307.905 212.239C312.862 208.815 316.006 206.644 318.954 204.543L274.766 145.857Z" fill="#FECFC4"/>
<path d="M274.766 145.857C263.131 149.224 249.847 151.71 238.922 151.142C224.429 150.39 203.293 153.127 187.508 163.647C185.683 164.874 184.306 166.661 183.586 168.739C182.866 170.817 182.841 173.073 183.516 175.166C184.191 177.26 185.528 179.076 187.326 180.343C189.124 181.609 191.286 182.256 193.484 182.185C204.574 181.581 215.583 179.93 226.362 177.253C239.875 174.203 248.25 173.633 260.82 179.455C274.004 185.562 307.905 212.239 307.905 212.239C312.862 208.815 316.006 206.644 318.954 204.543L274.766 145.857Z" stroke="#120071" stroke-width="2" stroke-linecap="round" stroke-linejoin="round"/>
<path d="M315.212 120.7C310.044 123.377 284.493 141.53 274.762 145.857L318.947 204.545C323.79 201.097 345.511 185.297 356.462 177.005L315.212 120.7Z" stroke="#120071" stroke-width="2" stroke-linecap="round" stroke-linejoin="round"/>
<path d="M329.048 185.998C333.644 185.998 337.371 182.272 337.371 177.675C337.371 173.079 333.644 169.352 329.048 169.352C324.452 169.352 320.725 173.079 320.725 177.675C320.725 182.272 324.452 185.998 329.048 185.998Z" stroke="#120071" stroke-width="2" stroke-linecap="round" stroke-linejoin="round"/>
<path d="M325.676 174.301L332.422 181.05" stroke="#120071" stroke-width="2" stroke-linecap="round" stroke-linejoin="round"/>
<path d="M325.676 181.05L332.422 174.301" stroke="#120071" stroke-width="2" stroke-linecap="round" stroke-linejoin="round"/>
</svg>
