<svg width="24" height="24" viewBox="0 0 24 24" fill="none" xmlns="http://www.w3.org/2000/svg">
<g id="Shipping Box 2" clip-path="url(#clip0_187_11885)">
<g id="shipping-box-2--box-package-label-delivery-shipment-shipping-3d">
<path id="Vector" d="M12.0001 0.857422V7.71456" stroke="#636363" stroke-width="1.6" stroke-linecap="round" stroke-linejoin="round"/>
<path id="Vector_2" d="M14.5715 18.8574H18.8572" stroke="#636363" stroke-width="1.6" stroke-linecap="round" stroke-linejoin="round"/>
<path id="Vector_3" d="M0.857178 7.71484H23.1429V21.4291C23.1429 21.8838 22.9622 22.3199 22.6408 22.6413C22.3193 22.9627 21.8832 23.1434 21.4286 23.1434H2.57146C2.1168 23.1434 1.68077 22.9627 1.35928 22.6413C1.03779 22.3199 0.857178 21.8838 0.857178 21.4291V7.71484Z" stroke="#636363" stroke-width="1.6" stroke-linecap="round" stroke-linejoin="round"/>
<path id="Vector_4" d="M0.857178 7.71456L3.42861 2.76028C3.70582 2.20188 4.13004 1.72965 4.65562 1.39436C5.18121 1.05908 5.78825 0.87344 6.41146 0.857422H17.5886C18.2265 0.85776 18.8515 1.03603 19.3937 1.37219C19.9358 1.70834 20.3733 2.18906 20.6572 2.76028L23.1429 7.71456" stroke="#636363" stroke-width="1.6" stroke-linecap="round" stroke-linejoin="round"/>
</g>
</g>
<defs>
<clipPath id="clip0_187_11885">
<rect width="24" height="24" fill="white"/>
</clipPath>
</defs>
</svg>
