<svg width="24" height="24" viewBox="0 0 24 24" fill="none" xmlns="http://www.w3.org/2000/svg">
<g id="Workflow Teamwork Handshake" clip-path="url(#clip0_187_11852)">
<path id="Vector" d="M10.168 11.0543L14.693 8.85434C15.0869 8.66131 15.5413 8.63261 15.9563 8.77458C16.3713 8.91654 16.7129 9.21753 16.906 9.61134L19.334 14.5593C19.527 14.9532 19.5557 15.4076 19.4138 15.8226C19.2718 16.2376 18.9708 16.5792 18.577 16.7723L12.391 19.7903L9.867 23.0083" stroke="#636363" stroke-width="1.6" stroke-linecap="round" stroke-linejoin="round"/>
<path id="Vector_2" d="M3.72999 15.1703C3.63286 15.3654 3.57525 15.5777 3.5605 15.7951C3.54574 16.0126 3.57412 16.2308 3.64401 16.4372C3.7139 16.6436 3.82392 16.8342 3.96773 16.9979C4.11155 17.1616 4.28632 17.2953 4.48199 17.3913L5.71399 18.0003C6.04569 18.1638 6.40692 18.2589 6.77615 18.2799C7.14538 18.3008 7.51505 18.2472 7.86313 18.1223C8.2112 17.9973 8.53056 17.8036 8.80216 17.5526C9.07376 17.3016 9.29204 16.9984 9.44399 16.6613L10.63 14.0333C10.9243 13.3815 10.9537 12.6409 10.7121 11.9678C10.4704 11.2948 9.97664 10.742 9.33499 10.4263L8.20499 9.87027C7.81336 9.6787 7.3619 9.64961 6.94892 9.78934C6.53593 9.92906 6.19487 10.2263 5.99999 10.6163L3.72999 15.1703Z" stroke="#636363" stroke-width="1.6" stroke-linecap="round" stroke-linejoin="round"/>
<path id="Vector_3" d="M5.47898 17.88L1.44598 23.008" stroke="#636363" stroke-width="1.6" stroke-linecap="round" stroke-linejoin="round"/>
<path id="Vector_4" d="M11.996 20.2889L14.125 23.0079" stroke="#636363" stroke-width="1.6" stroke-linecap="round" stroke-linejoin="round"/>
<path id="Vector_5" d="M17.919 17.089L22.554 23.008" stroke="#636363" stroke-width="1.6" stroke-linecap="round" stroke-linejoin="round"/>
<path id="Vector_6" d="M13.991 9.14855L9.247 6.78255C8.97104 6.64716 8.6526 6.62693 8.36173 6.72633C8.07087 6.82572 7.83139 7.03659 7.696 7.31255L7.508 7.69955C7.4123 7.90097 7.35832 8.11967 7.34931 8.34249C7.3403 8.56531 7.37644 8.78766 7.45556 8.99615C7.53468 9.20465 7.65515 9.39499 7.80972 9.55574C7.96428 9.71649 8.14976 9.84432 8.355 9.93155L8.955 10.2385" stroke="#636363" stroke-width="1.6" stroke-linecap="round" stroke-linejoin="round"/>
<path id="Vector_7" d="M10.259 7.28835L12.765 6.08235C13.041 5.94696 13.3594 5.92674 13.6503 6.02613C13.9412 6.12553 14.1806 6.3364 14.316 6.61235L14.5 7.00035C14.6006 7.20527 14.6598 7.428 14.6742 7.6558C14.6887 7.8836 14.6581 8.11203 14.5843 8.32802C14.5105 8.54401 14.3948 8.74335 14.244 8.91465C14.0931 9.08594 13.91 9.22584 13.705 9.32635L12.616 9.86035" stroke="#636363" stroke-width="1.6" stroke-linecap="round" stroke-linejoin="round"/>
<path id="Vector_8" d="M11.996 0.991943V2.99194" stroke="#636363" stroke-width="1.6" stroke-linecap="round" stroke-linejoin="round"/>
<path id="Vector_9" d="M21.542 4.94629L20.127 6.36029" stroke="#636363" stroke-width="1.6" stroke-linecap="round" stroke-linejoin="round"/>
<path id="Vector_10" d="M2.45001 4.94629L3.86401 6.36029" stroke="#636363" stroke-width="1.6" stroke-linecap="round" stroke-linejoin="round"/>
</g>
<defs>
<clipPath id="clip0_187_11852">
<rect width="24" height="24" fill="white"/>
</clipPath>
</defs>
</svg>
