<svg width="24" height="24" viewBox="0 0 24 24" fill="none" xmlns="http://www.w3.org/2000/svg">
<g id="Workflow Coaching Product Catalog" clip-path="url(#clip0_187_11891)">
<path id="Vector" d="M12 22.5L11.46 21.96C9.5647 20.0648 6.99425 19.0001 4.314 19H1.75C1.48478 19 1.23043 18.8946 1.04289 18.7071C0.855357 18.5196 0.75 18.2652 0.75 18V2.5C0.75 2.23478 0.855357 1.98043 1.04289 1.79289C1.23043 1.60536 1.48478 1.5 1.75 1.5H3.592C5.25558 1.50018 6.89339 1.911 8.36011 2.69599C9.82683 3.48099 11.0771 4.61589 12 6V22.5Z" stroke="#636363" stroke-width="1.6" stroke-linecap="round" stroke-linejoin="round"/>
<path id="Vector_2" d="M12 22.5L12.54 21.96C14.4353 20.0648 17.0057 19.0001 19.686 19H22.25C22.5152 19 22.7696 18.8946 22.9571 18.7071C23.1446 18.5196 23.25 18.2652 23.25 18V2.5C23.25 2.23478 23.1446 1.98043 22.9571 1.79289C22.7696 1.60536 22.5152 1.5 22.25 1.5H20.408C18.7444 1.50018 17.1066 1.911 15.6399 2.69599C14.1732 3.48099 12.9229 4.61589 12 6V22.5Z" stroke="#636363" stroke-width="1.6" stroke-linecap="round" stroke-linejoin="round"/>
<path id="Vector_3" d="M3.72601 6.23675C5.61554 6.08354 7.49703 6.61604 9.02601 7.73675" stroke="#636363" stroke-width="1.6" stroke-linecap="round" stroke-linejoin="round"/>
<path id="Vector_4" d="M3.72601 10.2367C5.61554 10.0835 7.49703 10.616 9.02601 11.7367" stroke="#636363" stroke-width="1.6" stroke-linecap="round" stroke-linejoin="round"/>
<path id="Vector_5" d="M3.72601 14.2366C5.61549 14.0839 7.49679 14.6164 9.02601 15.7366" stroke="#636363" stroke-width="1.6" stroke-linecap="round" stroke-linejoin="round"/>
<path id="Vector_6" d="M18.875 8.25H16.842C16.5304 8.25022 16.2286 8.35884 15.9884 8.55723C15.7481 8.75563 15.5844 9.03143 15.5253 9.33734C15.4662 9.64325 15.5153 9.96019 15.6643 10.2338C15.8134 10.5074 16.0529 10.7207 16.342 10.837L18.406 11.663C18.695 11.7793 18.9346 11.9926 19.0836 12.2662C19.2326 12.5398 19.2818 12.8568 19.2227 13.1627C19.1635 13.4686 18.9998 13.7444 18.7596 13.9428C18.5193 14.1412 18.2175 14.2498 17.906 14.25H15.875" stroke="#636363" stroke-width="1.6" stroke-linecap="round" stroke-linejoin="round"/>
<path id="Vector_7" d="M17.375 8.25V7.5" stroke="#636363" stroke-width="1.6" stroke-linecap="round" stroke-linejoin="round"/>
<path id="Vector_8" d="M17.375 15V14.25" stroke="#636363" stroke-width="1.6" stroke-linecap="round" stroke-linejoin="round"/>
</g>
<defs>
<clipPath id="clip0_187_11891">
<rect width="24" height="24" fill="white"/>
</clipPath>
</defs>
</svg>
