<svg width="15" height="15" viewBox="0 0 15 15" fill="none" xmlns="http://www.w3.org/2000/svg">
<g id="Workflow Teamwork Handshake" clip-path="url(#clip0_187_11931)">
<path id="Vector" d="M6.355 6.90872L9.18312 5.53372C9.42928 5.41307 9.71328 5.39514 9.97266 5.48387C10.232 5.57259 10.4456 5.76071 10.5662 6.00685L12.0837 9.09935C12.2044 9.3455 12.2223 9.6295 12.1336 9.88888C12.0449 10.1483 11.8568 10.3618 11.6106 10.4825L7.74437 12.3687L6.16687 14.38" stroke="#2C2C2C" stroke-linecap="round" stroke-linejoin="round"/>
<path id="Vector_2" d="M2.33125 9.4813C2.27054 9.60323 2.23454 9.73595 2.22532 9.87185C2.21609 10.0077 2.23383 10.1441 2.27752 10.2731C2.3212 10.4021 2.38996 10.5212 2.47984 10.6236C2.56973 10.7259 2.67896 10.8095 2.80125 10.8694L3.57125 11.25C3.77857 11.3523 4.00433 11.4117 4.2351 11.4248C4.46587 11.4379 4.69692 11.4044 4.91446 11.3263C5.13201 11.2482 5.33161 11.1271 5.50136 10.9702C5.67111 10.8134 5.80753 10.6239 5.9025 10.4132L6.64375 8.77067C6.82768 8.36333 6.84608 7.90043 6.69505 7.47978C6.54403 7.05912 6.2354 6.71363 5.83438 6.5163L5.12813 6.1688C4.88336 6.04907 4.60119 6.03089 4.34308 6.11821C4.08497 6.20554 3.8718 6.3913 3.75 6.63505L2.33125 9.4813Z" stroke="#2C2C2C" stroke-linecap="round" stroke-linejoin="round"/>
<path id="Vector_3" d="M3.42437 11.175L0.903748 14.38" stroke="#2C2C2C" stroke-linecap="round" stroke-linejoin="round"/>
<path id="Vector_4" d="M7.4975 12.6807L8.82812 14.38" stroke="#2C2C2C" stroke-linecap="round" stroke-linejoin="round"/>
<path id="Vector_5" d="M11.1994 10.6807L14.0962 14.38" stroke="#2C2C2C" stroke-linecap="round" stroke-linejoin="round"/>
<path id="Vector_6" d="M8.74438 5.71809L5.77938 4.23934C5.60691 4.15472 5.40788 4.14208 5.22609 4.2042C5.0443 4.26632 4.89463 4.39811 4.81001 4.57059L4.69251 4.81246C4.6327 4.93835 4.59896 5.07504 4.59333 5.2143C4.5877 5.35357 4.61028 5.49253 4.65973 5.62284C4.70918 5.75315 4.78448 5.87212 4.88108 5.97258C4.97768 6.07305 5.09361 6.15294 5.22188 6.20746L5.59688 6.39934" stroke="#2C2C2C" stroke-linecap="round" stroke-linejoin="round"/>
<path id="Vector_7" d="M6.41188 4.55497L7.97813 3.80122C8.1506 3.71661 8.34963 3.70397 8.53142 3.76609C8.71321 3.82821 8.86288 3.96 8.94751 4.13247L9.06251 4.37497C9.12535 4.50305 9.16234 4.64225 9.17138 4.78463C9.18042 4.92701 9.16133 5.06977 9.11519 5.20477C9.06905 5.33976 8.99676 5.46435 8.90247 5.57141C8.80818 5.67847 8.69372 5.7659 8.56563 5.82873L7.88501 6.16247" stroke="#2C2C2C" stroke-linecap="round" stroke-linejoin="round"/>
<path id="Vector_8" d="M7.4975 0.619995V1.87" stroke="#2C2C2C" stroke-linecap="round" stroke-linejoin="round"/>
<path id="Vector_9" d="M13.4638 3.09131L12.5794 3.97506" stroke="#2C2C2C" stroke-linecap="round" stroke-linejoin="round"/>
<path id="Vector_10" d="M1.53125 3.09131L2.415 3.97506" stroke="#2C2C2C" stroke-linecap="round" stroke-linejoin="round"/>
</g>
<defs>
<clipPath id="clip0_187_11931">
<rect width="15" height="15" fill="white"/>
</clipPath>
</defs>
</svg>
